<svg width="91" height="91" viewBox="0 0 91 91" fill="none" xmlns="http://www.w3.org/2000/svg">
<path d="M60.5 35.7826C60.5 39.7609 58.9196 43.5762 56.1066 46.3892C53.2936 49.2023 49.4782 50.7826 45.5 50.7826C41.5218 50.7826 37.7064 49.2023 34.8934 46.3892C32.0804 43.5762 30.5 39.7609 30.5 35.7826V24.3451C31.9282 24.0522 33.2684 23.4302 34.4141 22.5286C35.5598 21.627 36.4795 20.4707 37.1 19.1514C38.422 20.2033 40.0605 20.7781 41.75 20.7826C51.125 20.7826 54.875 21.4951 59.2625 17.9326C60.9125 19.9389 60.5 20.4264 60.5 35.7826Z" fill="#F6CCAF"/>
<path d="M60.5 35.7818C60.5 38.2081 59.9114 40.5982 58.7847 42.7471C57.658 44.8959 56.0269 46.7394 54.0312 48.1193C51.7757 48.8779 49.372 49.0889 47.0187 48.7349C44.6655 48.3809 42.4302 47.4721 40.4976 46.0835C38.565 44.695 36.9905 42.8665 35.9041 40.7492C34.8178 38.6319 34.2508 36.2866 34.25 33.9068V22.6568C35.4752 21.7494 36.4547 20.5507 37.1 19.1693C38.4245 20.2146 40.0627 20.7827 41.75 20.7818C50.9375 20.7818 54.4812 21.4381 58.7375 18.3068C58.9642 18.2668 59.1848 18.1974 59.3937 18.1006C60.875 20.0131 60.5 20.4068 60.5 35.7818Z" fill="#FFDEC7"/>
<path d="M59.3938 18.1005C59.1849 18.1974 58.9643 18.2667 58.7376 18.3068C59.3188 17.9505 59.2063 17.8193 59.3938 18.1005ZM34.5688 22.3755C34.1938 22.7505 34.2501 22.6568 34.2501 22.4693C34.3612 22.4581 34.4693 22.4263 34.5688 22.3755Z" fill="#F6CCAF"/>
<path d="M68.0001 31.0952C68.0001 32.3384 67.5062 33.5307 66.6271 34.4097C65.748 35.2888 64.5558 35.7827 63.3126 35.7827H60.5001V26.4077H63.3126C63.9288 26.4052 64.5395 26.5247 65.1093 26.7594C65.6791 26.9941 66.1969 27.3393 66.6326 27.7751C67.0684 28.2108 67.4136 28.7286 67.6483 29.2984C67.883 29.8682 68.0025 30.4789 68.0001 31.0952ZM30.5001 26.4077V35.7827H27.6876C26.7632 35.7755 25.8614 35.4963 25.0948 34.9798C24.3281 34.4634 23.7305 33.7326 23.3765 32.8787C23.0226 32.0248 22.9279 31.0855 23.1044 30.1781C23.2808 29.2708 23.7206 28.4354 24.3688 27.7764C26.1313 26.0139 28.1938 26.4077 30.5001 26.4077Z" fill="#374F68"/>
<path d="M62.375 45.1572H47.375C46.8777 45.1572 46.4008 44.9597 46.0492 44.6081C45.6975 44.2564 45.5 43.7795 45.5 43.2822C45.5 42.7849 45.6975 42.308 46.0492 41.9564C46.4008 41.6048 46.8777 41.4072 47.375 41.4072H62.375C62.8723 41.4072 63.3492 41.2097 63.7008 40.8581C64.0525 40.5064 64.25 40.0295 64.25 39.5322V34.8447C64.25 34.3474 64.4475 33.8705 64.7992 33.5189C65.1508 33.1673 65.6277 32.9697 66.125 32.9697C66.6223 32.9697 67.0992 33.1673 67.4508 33.5189C67.8025 33.8705 68 34.3474 68 34.8447V39.5322C68 41.0241 67.4074 42.4548 66.3525 43.5097C65.2976 44.5646 63.8668 45.1572 62.375 45.1572Z" fill="#374F68"/>
<path d="M47.375 47.0322H43.625C42.6304 47.0322 41.6766 46.6371 40.9734 45.9339C40.2701 45.2306 39.875 44.2768 39.875 43.2822C39.875 42.2877 40.2701 41.3338 40.9734 40.6306C41.6766 39.9273 42.6304 39.5322 43.625 39.5322H47.375C48.3696 39.5322 49.3234 39.9273 50.0266 40.6306C50.7299 41.3338 51.125 42.2877 51.125 43.2822C51.125 44.2768 50.7299 45.2306 50.0266 45.9339C49.3234 46.6371 48.3696 47.0322 47.375 47.0322Z" fill="#374F68"/>
<path d="M50.6188 45.1572H47.3751C46.7171 45.1566 46.0709 44.9828 45.5014 44.6534C44.9319 44.324 44.459 43.8505 44.1304 43.2806C43.8017 42.7106 43.6287 42.0642 43.6289 41.4063C43.6291 40.7483 43.8023 40.102 44.1313 39.5322H47.3751C48.033 39.5329 48.6792 39.7067 49.2487 40.0361C49.8183 40.3655 50.2911 40.8389 50.6198 41.4089C50.9484 41.9788 51.1214 42.6253 51.1212 43.2832C51.121 43.9411 50.9478 44.5874 50.6188 45.1572Z" fill="#425B72"/>
<path d="M75.5 88.2822H51.125C49.8125 81.6822 48.125 73.2822 47.375 69.5322L49.25 65.7822L51.125 67.6572L57.8938 58.2822C61.8842 58.8939 65.5707 60.7772 68.405 63.652C71.2393 66.5268 73.0701 70.2397 73.625 74.2385C75.2563 86.4072 74.825 83.276 75.5 88.2822Z" fill="#EDEBF2"/>
<path d="M57.8938 58.2826L51.125 67.6576L45.5 62.0326L51.125 57.2139L57.8938 58.2826Z" fill="#6FABE6"/>
<path d="M43.625 69.5322L39.875 88.2822H15.5L17.375 74.2385C17.9299 70.2397 19.7607 66.5268 22.595 63.652C25.4293 60.7772 29.1158 58.8939 33.1062 58.2822L39.875 67.6572L41.75 65.7822L43.625 69.5322Z" fill="#DAD7E5"/>
<path d="M43.625 69.5322L40.625 84.5322H21.125C23 70.901 22.6437 65.1447 28.625 59.4822C30.0619 58.8939 31.5677 58.4907 33.1062 58.2822L39.875 67.6572L41.75 65.7822L43.625 69.5322Z" fill="#DAD7E5"/>
<path d="M43.6251 69.5322L40.6251 84.5322H29.6939C28.6194 84.5417 27.5555 84.3202 26.5742 83.8828C25.5928 83.4453 24.7169 82.8021 24.0057 81.9967C23.2945 81.1913 22.7647 80.2425 22.4521 79.2146C22.1395 78.1866 22.0514 77.1034 22.1939 76.0385C22.9814 70.226 23.0751 64.676 28.5126 59.4822C29.9853 58.8846 31.5295 58.4813 33.1064 58.2822L39.8751 67.6572L41.7501 65.7822L43.6251 69.5322Z" fill="#EDEBF2"/>
<path d="M45.5 62.0326L39.875 67.6576L33.1062 58.2826C33.35 58.2826 39.5187 57.3639 39.875 57.3076L45.5 62.0326Z" fill="#6FABE6"/>
<path d="M45.5 62.0326C45.0398 62.4946 44.4843 62.8506 43.8724 63.0758C43.2604 63.301 42.6067 63.3899 41.9568 63.3363C41.307 63.2828 40.6766 63.088 40.1098 62.7657C39.5429 62.4434 39.0533 62.0012 38.675 61.4701L36.0125 57.7201L39.875 57.2139L45.5 62.0326ZM45.5 62.0326C45.9601 62.4946 46.5156 62.8506 47.1275 63.0758C47.7395 63.301 48.3932 63.3899 49.0431 63.3363C49.693 63.2828 50.3233 63.088 50.8901 62.7657C51.457 62.4434 51.9466 62.0012 52.3249 61.4701L54.9874 57.7201L51.125 57.2139L45.5 62.0326Z" fill="#82BCF4"/>
<path d="M51.125 49.6943V57.1943L45.5 62.0318L39.875 57.2131V49.7131C43.4884 51.151 47.5164 51.1443 51.125 49.6943Z" fill="#F6CCAF"/>
<path d="M51.125 49.6943V57.1943L47.375 60.4006C44.0563 57.5693 43.625 54.4381 43.625 50.6318C46.164 50.9646 48.746 50.6419 51.125 49.6943Z" fill="#FFDEC7"/>
<path d="M64.25 2.03223C64.25 7.99473 64.9812 13.451 59.2625 17.9322C54.875 21.476 51.125 20.7822 41.75 20.7822C40.4689 20.78 39.2098 20.4496 38.0926 19.8226C36.9754 19.1957 36.0375 18.293 35.3682 17.2007C34.6989 16.1084 34.3205 14.8628 34.2692 13.5828C34.2179 12.3027 34.4953 11.0309 35.075 9.88848C39.425 1.18848 51.8562 10.2635 64.25 2.03223Z" fill="#A87E6B"/>
<path d="M64.2499 2.03223C64.2499 7.99473 64.9812 13.451 59.2624 17.9322C57.9134 18.6436 56.3983 18.9802 54.8749 18.9072C45.7999 18.9072 43.6249 19.451 40.8499 17.276C40.0035 16.6021 39.313 15.7531 38.8256 14.7872C38.3382 13.8213 38.0656 12.7614 38.0264 11.6802C37.9872 10.599 38.1824 9.52218 38.5986 8.52353C39.0147 7.52489 39.642 6.62811 40.4374 5.89473C45.0687 5.05098 55.9624 7.82598 64.2499 2.03223Z" fill="#BE927C"/>
<path d="M37.0999 19.1512C36.3427 20.7594 35.144 22.1191 33.6434 23.0719C32.1429 24.0246 30.4024 24.5312 28.6249 24.5325C28.6249 14.1075 28.0062 12.345 30.4999 10.47C31.1461 9.98361 31.908 9.67417 32.7103 9.57224C33.5126 9.4703 34.3277 9.5794 35.0749 9.88874C34.2941 11.4297 34.0692 13.1929 34.4381 14.8806C34.8071 16.5682 35.7473 18.0767 37.0999 19.1512Z" fill="#A87E6B"/>
<path d="M36.4812 18.6075C35.9202 19.0229 35.2544 19.2734 34.5587 19.3309C33.863 19.3885 33.1651 19.2506 32.5435 18.933C31.9218 18.6154 31.4012 18.1306 31.0402 17.5331C30.6792 16.9356 30.4921 16.2493 30.5 15.5512V10.47C31.1462 9.98361 31.908 9.67417 32.7104 9.57224C33.5127 9.4703 34.3277 9.5794 35.075 9.88874C34.3711 11.3072 34.1282 12.9102 34.3803 14.4736C34.6325 16.0369 35.3671 17.4823 36.4812 18.6075Z" fill="#BE927C"/>
<path d="M49.25 65.7822L47.375 69.5322H43.625L41.75 65.7822L45.5 62.0322L49.25 65.7822Z" fill="#DB5669"/>
<path d="M49.25 65.7822L48.3125 67.6572C45.6688 67.6572 44.675 66.0072 43.625 63.9072L45.5 62.0322L49.25 65.7822Z" fill="#F26674"/>
<path d="M51.125 88.2822H39.875L43.625 69.5322H47.375L51.125 88.2822Z" fill="#DB5669"/>
<path d="M51.1251 88.2822C49.9917 88.2764 48.8737 88.02 47.851 87.5314C46.8283 87.0429 45.9263 86.3342 45.2096 85.4562C44.4929 84.5782 43.9791 83.5526 43.7052 82.4528C43.4313 81.3531 43.4039 80.2063 43.6251 79.0947L45.5001 69.5322H47.3751L51.1251 88.2822Z" fill="#F26674"/>
<path d="M30.5 26.4072V32.0322H29.5625C28.9463 32.0347 28.3356 31.9152 27.7658 31.6805C27.1959 31.4458 26.6782 31.1006 26.2424 30.6648C25.8067 30.229 25.4615 29.7113 25.2268 29.1415C24.9921 28.5717 24.8726 27.961 24.875 27.3447C26.3563 26.2197 27.5375 26.4072 30.5 26.4072ZM60.5 26.4072V32.0322H61.4375C62.0538 32.0347 62.6645 31.9152 63.2343 31.6805C63.8041 31.4458 64.3219 31.1006 64.7576 30.6648C65.1934 30.229 65.5386 29.7113 65.7733 29.1415C66.008 28.5717 66.1275 27.961 66.125 27.3447C64.6438 26.2197 63.4625 26.4072 60.5 26.4072Z" fill="#425B72"/>
<path d="M75.5 88.2822H51.125L50.375 84.5322H74.9937L75.5 88.2822Z" fill="#DAD7E5"/>
</svg>
