<svg width="700" height="550" viewBox="0 0 700 550" fill="none" xmlns="http://www.w3.org/2000/svg">
<path d="M542.656 438.872C541.688 437.261 518.902 399.286 515.215 389.458L516.135 389.113C519.79 398.858 543.261 437.973 543.498 438.366L542.656 438.872Z" fill="#8B9D36"/>
<path d="M523.63 368.602C522.637 371.06 521.877 373.606 521.362 376.207C520.834 378.753 520.447 381.327 520.202 383.916C519.95 386.505 519.844 389.105 519.883 391.706C519.898 394.357 520.166 397.002 520.684 399.602C521.682 397.146 522.443 394.599 522.958 391.998C523.486 389.452 523.871 386.878 524.112 384.288C524.359 381.699 524.464 379.098 524.426 376.498C524.41 373.847 524.143 371.203 523.63 368.602Z" fill="#8B9D36"/>
<path d="M532.293 380.447C531.083 382.736 530.098 385.137 529.349 387.616C528.595 390.039 527.977 392.503 527.5 394.996C527.016 397.488 526.675 400.005 526.479 402.535C526.255 405.115 526.283 407.711 526.563 410.286C527.777 407.998 528.765 405.598 529.512 403.118C530.267 400.694 530.883 398.23 531.357 395.737C531.836 393.244 532.175 390.727 532.372 388.197C532.595 385.617 532.569 383.021 532.293 380.447Z" fill="#8B9D36"/>
<path d="M537.066 394.235C536.001 396.363 535.161 398.597 534.56 400.9C533.953 403.143 533.485 405.421 533.158 407.721C532.824 410.021 532.635 412.339 532.59 414.662C532.521 417.041 532.705 419.421 533.137 421.762C534.207 419.636 535.049 417.402 535.648 415.099C536.256 412.856 536.722 410.577 537.045 408.276C537.375 405.976 537.562 403.658 537.607 401.335C537.675 398.956 537.493 396.576 537.066 394.235Z" fill="#8B9D36"/>
<path d="M543.077 407.999C542.007 409.781 541.154 411.685 540.536 413.67C539.917 415.587 539.435 417.546 539.093 419.531C538.745 421.515 538.541 423.522 538.482 425.535C538.397 427.613 538.564 429.693 538.979 431.731C540.053 429.951 540.908 428.047 541.525 426.061C542.145 424.144 542.625 422.185 542.963 420.199C543.307 418.214 543.509 416.207 543.569 414.194C543.652 412.116 543.487 410.037 543.077 407.999Z" fill="#8B9D36"/>
<path d="M548.38 416.601C547.289 418.147 546.388 419.819 545.697 421.581C545.02 423.263 544.457 424.989 544.011 426.747C543.569 428.491 543.229 430.26 542.992 432.044C542.882 432.943 542.781 433.837 542.714 434.749C542.679 435.678 542.58 436.603 542.417 437.518C542.644 437.396 542.862 437.259 543.069 437.106L543.599 436.576C543.936 436.214 544.246 435.827 544.525 435.418C545.062 434.63 545.538 433.801 545.949 432.94C546.745 431.265 547.371 429.515 547.817 427.715C548.271 425.931 548.566 424.11 548.696 422.274C548.855 420.378 548.748 418.468 548.38 416.601Z" fill="#8B9D36"/>
<path d="M518.48 395.366C516.698 393.412 514.692 391.673 512.505 390.185C510.397 388.721 508.19 387.405 505.9 386.247C503.614 385.082 501.247 384.08 498.819 383.249C496.325 382.365 493.735 381.781 491.104 381.507C492.882 383.466 494.886 385.208 497.075 386.694C499.182 388.159 501.39 389.473 503.683 390.627C505.972 391.787 508.339 392.786 510.767 393.618C513.261 394.5 515.849 395.087 518.48 395.366Z" fill="#8B9D36"/>
<path d="M524.349 406.329C522.07 404.465 519.599 402.848 516.979 401.505C514.435 400.17 511.81 398.994 509.119 397.985C506.432 396.968 503.683 396.122 500.889 395.452C498.032 394.736 495.107 394.328 492.164 394.235C494.44 396.104 496.91 397.724 499.531 399.066C502.075 400.402 504.701 401.576 507.393 402.58C510.082 403.592 512.832 404.436 515.626 405.107C518.482 405.821 521.406 406.231 524.349 406.329Z" fill="#8B9D36"/>
<path d="M531.258 418.514C529.228 416.713 526.999 415.15 524.615 413.856C522.31 412.576 519.921 411.454 517.465 410.496C515.011 409.532 512.494 408.737 509.931 408.119C507.3 407.454 504.601 407.096 501.887 407.052C503.913 408.858 506.141 410.423 508.528 411.716C510.832 412.997 513.222 414.117 515.68 415.07C518.136 416.029 520.653 416.821 523.216 417.441C525.847 418.104 528.545 418.465 531.258 418.514Z" fill="#8B9D36"/>
<path d="M536.718 427.893C534.95 426.362 532.988 425.07 530.883 424.05C528.869 423.048 526.779 422.208 524.632 421.537C522.488 420.859 520.292 420.355 518.066 420.03C515.755 419.665 513.405 419.61 511.079 419.865C512.844 421.401 514.806 422.696 516.912 423.714C518.926 424.717 521.017 425.556 523.165 426.222C525.312 426.895 527.508 427.396 529.733 427.722C532.044 428.085 534.392 428.143 536.718 427.893Z" fill="#8B9D36"/>
<path d="M541.028 436.309C539.085 434.444 536.933 432.808 534.615 431.436C532.377 430.081 530.049 428.88 527.648 427.842C525.25 426.796 522.782 425.918 520.262 425.215C517.675 424.462 515.008 424.014 512.317 423.879C514.257 425.749 516.408 427.387 518.728 428.758C520.965 430.114 523.294 431.313 525.697 432.347C528.098 433.387 530.566 434.263 533.086 434.967C535.673 435.718 538.338 436.168 541.028 436.309Z" fill="#8B9D36"/>
<path d="M516.573 390.7C516.931 388.081 516.867 385.422 516.381 382.823C515.954 380.374 515.282 377.973 514.374 375.658C513.476 373.34 512.342 371.119 510.992 369.031C509.585 366.792 507.823 364.796 505.776 363.122C505.41 365.741 505.471 368.402 505.958 371.002C506.385 373.451 507.06 375.851 507.974 378.164C508.88 380.48 510.016 382.699 511.365 384.787C512.773 387.024 514.531 389.021 516.573 390.7Z" fill="#8B9D36"/>
<path d="M546.261 440.477C546.25 439.823 545.058 374.799 532.549 354.993L533.379 354.468C546.035 374.508 547.2 437.778 547.244 440.461L546.261 440.477Z" fill="#50661A"/>
<path d="M537.03 363.507C536.641 360.571 536.543 357.605 536.736 354.65C536.899 351.771 537.219 348.903 537.693 346.059C538.152 343.225 538.776 340.42 539.509 337.639C540.242 334.838 541.167 332.144 542.156 329.275C542.436 329.988 542.648 330.725 542.79 331.477C542.948 332.215 543.064 332.963 543.136 333.714C543.289 335.19 543.356 336.673 543.336 338.156C543.292 341.074 543.025 343.984 542.536 346.861C542.06 349.729 541.387 352.561 540.522 355.337C539.666 358.182 538.495 360.922 537.03 363.507Z" fill="#50661A"/>
<path d="M521.473 323.441C523.649 325.539 525.514 327.936 527.014 330.56C528.474 333.048 529.716 335.659 530.727 338.362C531.746 341.061 532.526 343.845 533.057 346.681C533.651 349.646 533.815 352.68 533.544 355.691C531.362 353.598 529.493 351.202 527.995 348.576C526.533 346.088 525.293 343.476 524.29 340.771C523.278 338.069 522.501 335.284 521.968 332.448C521.376 329.484 521.21 326.452 521.473 323.441Z" fill="#50661A"/>
<path d="M511.043 339.566C513.624 341.64 516.062 343.886 518.339 346.289C520.594 348.626 522.746 351.016 524.851 353.418L531.106 360.596C532.155 361.772 533.215 362.93 534.336 364.027C535.442 365.19 536.732 366.163 538.152 366.91C537.286 367.062 536.398 367.039 535.54 366.844C534.675 366.672 533.831 366.406 533.023 366.053C531.442 365.358 529.94 364.496 528.541 363.483C525.827 361.495 523.349 359.204 521.158 356.652C518.977 354.152 517.014 351.47 515.29 348.636C513.516 345.795 512.09 342.749 511.043 339.566Z" fill="#50661A"/>
<path d="M511.043 355.691C514.225 357.28 517.26 359.147 520.113 361.27C522.936 363.334 525.652 365.542 528.251 367.883C530.854 370.219 533.335 372.688 535.683 375.281C538.093 377.896 540.266 380.721 542.173 383.723C538.988 382.14 535.951 380.274 533.099 378.15C530.275 376.086 527.56 373.877 524.966 371.531C522.366 369.192 519.887 366.721 517.538 364.129C515.129 361.513 512.956 358.69 511.043 355.691Z" fill="#50661A"/>
<path d="M512.104 368.343C515.309 369.835 518.376 371.608 521.267 373.642C524.127 375.619 526.884 377.741 529.526 380.001C532.174 382.254 534.702 384.644 537.1 387.161C539.561 389.699 541.79 392.453 543.759 395.391C540.551 393.904 537.482 392.132 534.591 390.097C531.731 388.121 528.976 385.997 526.337 383.733C523.693 381.476 521.167 379.084 518.768 376.568C516.307 374.029 514.077 371.277 512.104 368.343Z" fill="#50661A"/>
<path d="M512.811 381.867C516.001 383.066 519.073 384.557 521.99 386.32C524.868 388.026 527.654 389.885 530.335 391.889C533.02 393.885 535.595 396.027 538.049 398.303C540.569 400.597 542.869 403.122 544.921 405.844C541.729 404.65 538.655 403.161 535.739 401.396C532.859 399.691 530.075 397.83 527.397 395.822C524.715 393.821 522.142 391.678 519.688 389.403C517.169 387.107 514.867 384.585 512.811 381.867Z" fill="#50661A"/>
<path d="M512.104 391.678C515.441 393.021 518.655 394.652 521.708 396.554C524.727 398.401 527.651 400.399 530.469 402.54C533.291 404.675 536.003 406.953 538.592 409.366C541.246 411.795 543.679 414.454 545.864 417.312C542.525 415.974 539.31 414.344 536.257 412.441C533.237 410.595 530.315 408.595 527.5 406.45C524.681 404.311 521.971 402.031 519.381 399.619C516.729 397.189 514.294 394.532 512.104 391.678Z" fill="#50661A"/>
<path d="M509.629 400.871C513.104 402.486 516.458 404.348 519.668 406.442C522.855 408.482 525.938 410.639 528.945 412.89C531.959 415.128 534.891 417.461 537.771 419.872C540.68 422.262 543.428 424.752 546.438 427.217C544.505 426.899 542.618 426.349 540.818 425.577C539.035 424.832 537.293 423.993 535.598 423.064C532.265 421.2 529.061 419.115 526.006 416.823C522.963 414.541 520.053 412.086 517.293 409.469C514.48 406.844 511.914 403.966 509.629 400.871Z" fill="#50661A"/>
<path d="M506.624 410.417C510.379 411.876 514.022 413.608 517.525 415.597C521.006 417.536 524.384 419.619 527.685 421.81C530.986 424.001 534.208 426.305 537.35 428.722C538.92 429.934 540.476 431.168 542.016 432.423C543.506 433.744 545.089 434.956 546.753 436.05C545.71 436.051 544.674 435.873 543.691 435.524C542.704 435.232 541.746 434.876 540.798 434.506C538.908 433.756 537.082 432.898 535.291 431.989C531.735 430.158 528.288 428.124 524.966 425.898C521.644 423.687 518.436 421.31 515.355 418.775C512.219 416.235 509.299 413.439 506.624 410.417Z" fill="#50661A"/>
<path d="M540.078 374.738C540.237 371.548 540.709 368.381 541.487 365.284C542.221 362.243 543.128 359.246 544.204 356.309C545.272 353.368 546.51 350.493 547.911 347.696C549.315 344.826 550.999 342.103 552.94 339.566C552.786 342.757 552.317 345.924 551.538 349.022C550.804 352.063 549.895 355.059 548.814 357.995C547.741 360.933 546.501 363.808 545.1 366.605C543.696 369.474 542.013 372.197 540.078 374.738Z" fill="#50661A"/>
<path d="M542.173 385.776C542.776 382.603 543.684 379.497 544.887 376.499C546.038 373.552 547.356 370.671 548.832 367.872C550.302 365.069 551.93 362.353 553.711 359.736C555.503 357.049 557.554 354.543 559.835 352.256C559.238 355.431 558.331 358.539 557.128 361.536C555.976 364.484 554.657 367.364 553.176 370.16C551.702 372.961 550.071 375.676 548.291 378.293C546.498 380.979 544.449 383.485 542.173 385.776Z" fill="#50661A"/>
<path d="M543.759 396.451C544.792 393.231 546.122 390.113 547.731 387.138C549.285 384.204 550.996 381.355 552.857 378.605C554.71 375.85 556.713 373.198 558.857 370.662C561.016 368.058 563.415 365.663 566.022 363.507C564.994 366.73 563.666 369.849 562.056 372.824C560.502 375.759 558.789 378.606 556.924 381.353C555.066 384.106 553.061 386.756 550.919 389.292C548.759 391.895 546.362 394.292 543.759 396.451Z" fill="#50661A"/>
<path d="M544.921 408.228C546.541 404.747 548.443 401.404 550.607 398.233C552.72 395.079 554.975 392.041 557.372 389.119C559.761 386.19 562.288 383.375 564.953 380.672C567.629 377.918 570.529 375.391 573.623 373.116C572.01 376.601 570.109 379.946 567.943 383.116C565.829 386.27 563.573 389.306 561.173 392.226C558.778 395.15 556.25 397.964 553.586 400.668C550.909 403.42 548.011 405.949 544.921 408.228Z" fill="#50661A"/>
<path d="M545.864 420.441C547.85 417.132 550.102 413.989 552.598 411.045C555.04 408.113 557.612 405.31 560.313 402.638C563.006 399.959 565.825 397.406 568.771 394.98C571.732 392.503 574.892 390.276 578.22 388.319C576.239 391.633 573.989 394.777 571.491 397.72C569.048 400.652 566.475 403.453 563.771 406.122C561.073 408.797 558.252 411.348 555.309 413.776C552.347 416.25 549.188 418.479 545.864 420.441Z" fill="#50661A"/>
<path d="M546.438 428.272C548.641 425.416 551.089 422.759 553.754 420.329C556.356 417.916 559.078 415.636 561.909 413.497C564.736 411.351 567.67 409.352 570.701 407.507C573.765 405.604 576.991 403.975 580.341 402.638C578.142 405.498 575.696 408.157 573.03 410.587C570.428 413 567.705 415.278 564.87 417.413C562.04 419.554 559.105 421.552 556.074 423.398C553.01 425.299 549.786 426.93 546.438 428.272Z" fill="#50661A"/>
<path d="M546.753 434.813C549.396 432.207 552.255 429.83 555.299 427.707C558.288 425.582 561.367 423.617 564.538 421.81C567.703 419.995 570.957 418.334 574.3 416.829C577.673 415.279 581.173 414.021 584.761 413.069C582.121 415.679 579.263 418.058 576.217 420.18C573.229 422.305 570.148 424.268 566.976 426.071C563.807 427.881 560.552 429.539 557.21 431.047C553.837 432.595 550.339 433.855 546.753 434.813Z" fill="#50661A"/>
<path d="M546.509 439.055C549.68 436.867 553.024 434.941 556.508 433.296C559.938 431.64 563.436 430.164 566.991 428.843C570.546 427.521 574.162 426.366 577.841 425.379C581.555 424.352 585.348 423.635 589.18 423.233C586.013 425.427 582.669 427.356 579.184 428.999C575.752 430.655 572.257 432.137 568.698 433.446C565.141 434.762 561.527 435.923 557.846 436.904C554.131 437.927 550.34 438.647 546.509 439.055Z" fill="#50661A"/>
<path d="M548.276 438.872L547.434 438.366C547.67 437.973 571.142 398.858 574.796 389.113L575.716 389.458C572.03 399.286 549.244 437.261 548.276 438.872Z" fill="#5E7C24"/>
<path d="M567.302 368.602C568.295 371.06 569.055 373.606 569.57 376.207C570.098 378.753 570.485 381.327 570.73 383.916C570.982 386.505 571.088 389.105 571.049 391.706C571.034 394.357 570.766 397.002 570.248 399.602C569.25 397.146 568.489 394.599 567.974 391.998C567.446 389.452 567.061 386.878 566.82 384.288C566.573 381.699 566.468 379.098 566.506 376.498C566.522 373.847 566.789 371.203 567.302 368.602Z" fill="#5E7C24"/>
<path d="M558.639 380.447C559.849 382.736 560.834 385.137 561.583 387.616C562.337 390.039 562.955 392.503 563.432 394.996C563.916 397.488 564.257 400.005 564.453 402.535C564.678 405.115 564.649 407.711 564.369 410.286C563.155 407.998 562.167 405.598 561.42 403.118C560.665 400.694 560.049 398.23 559.575 395.737C559.096 393.244 558.757 390.727 558.56 388.197C558.337 385.617 558.363 383.021 558.639 380.447Z" fill="#5E7C24"/>
<path d="M553.866 394.235C554.932 396.363 555.771 398.597 556.372 400.9C556.979 403.143 557.447 405.421 557.775 407.721C558.108 410.021 558.297 412.339 558.342 414.662C558.411 417.041 558.228 419.421 557.795 421.762C556.725 419.636 555.883 417.402 555.284 415.099C554.676 412.856 554.21 410.577 553.887 408.276C553.558 405.976 553.37 403.658 553.325 401.335C553.257 398.956 553.439 396.576 553.866 394.235Z" fill="#5E7C24"/>
<path d="M547.855 407.999C548.925 409.781 549.778 411.685 550.397 413.67C551.015 415.587 551.497 417.546 551.839 419.531C552.187 421.515 552.392 423.522 552.451 425.535C552.535 427.613 552.368 429.693 551.953 431.731C550.879 429.951 550.024 428.047 549.407 426.061C548.787 424.144 548.307 422.185 547.969 420.199C547.626 418.214 547.423 416.207 547.363 414.194C547.28 412.116 547.446 410.037 547.855 407.999Z" fill="#5E7C24"/>
<path d="M542.552 416.601C543.643 418.147 544.544 419.819 545.235 421.581C545.912 423.263 546.475 424.989 546.921 426.747C547.363 428.491 547.704 430.26 547.94 432.044C548.05 432.943 548.151 433.837 548.219 434.749C548.253 435.678 548.352 436.603 548.515 437.518C548.288 437.396 548.07 437.259 547.863 437.106L547.333 436.576C546.996 436.214 546.686 435.827 546.407 435.418C545.87 434.63 545.394 433.801 544.984 432.94C544.187 431.265 543.561 429.515 543.115 427.715C542.661 425.931 542.366 424.11 542.236 422.274C542.077 420.378 542.184 418.468 542.552 416.601Z" fill="#5E7C24"/>
<path d="M572.452 395.366C574.234 393.412 576.24 391.673 578.427 390.185C580.535 388.721 582.742 387.405 585.032 386.247C587.318 385.082 589.685 384.08 592.113 383.249C594.607 382.365 597.197 381.781 599.829 381.507C598.05 383.466 596.046 385.208 593.857 386.694C591.75 388.159 589.542 389.473 587.249 390.627C584.96 391.787 582.593 392.786 580.165 393.618C577.671 394.5 575.083 395.087 572.452 395.366Z" fill="#5E7C24"/>
<path d="M566.583 406.329C568.862 404.465 571.333 402.848 573.953 401.505C576.497 400.17 579.122 398.994 581.812 397.985C584.5 396.968 587.249 396.122 590.043 395.452C592.899 394.736 595.824 394.328 598.768 394.235C596.492 396.104 594.022 397.724 591.401 399.066C588.857 400.402 586.231 401.575 583.539 402.58C580.85 403.592 578.1 404.436 575.306 405.107C572.45 405.821 569.526 406.231 566.583 406.329Z" fill="#5E7C24"/>
<path d="M559.674 418.514C561.704 416.713 563.933 415.15 566.317 413.856C568.622 412.576 571.011 411.454 573.467 410.496C575.921 409.532 578.438 408.737 581.001 408.119C583.632 407.454 586.331 407.096 589.045 407.052C587.019 408.858 584.791 410.423 582.404 411.716C580.1 412.997 577.71 414.117 575.252 415.07C572.796 416.029 570.279 416.821 567.716 417.441C565.085 418.104 562.387 418.465 559.674 418.514Z" fill="#5E7C24"/>
<path d="M554.214 427.893C555.982 426.362 557.944 425.07 560.049 424.05C562.063 423.048 564.153 422.208 566.3 421.537C568.445 420.859 570.641 420.355 572.866 420.03C575.178 419.665 577.527 419.61 579.853 419.865C578.088 421.401 576.127 422.696 574.02 423.714C572.007 424.717 569.915 425.556 567.767 426.222C565.621 426.895 563.425 427.396 561.199 427.722C558.888 428.085 556.54 428.143 554.214 427.893Z" fill="#5E7C24"/>
<path d="M549.904 436.309C551.847 434.444 554 432.808 556.318 431.436C558.555 430.081 560.883 428.88 563.284 427.842C565.683 426.796 568.151 425.918 570.67 425.215C573.258 424.462 575.924 424.014 578.615 423.879C576.675 425.749 574.524 427.387 572.204 428.758C569.967 430.114 567.638 431.313 565.235 432.347C562.834 433.387 560.366 434.263 557.846 434.967C555.259 435.718 552.594 436.168 549.904 436.309Z" fill="#5E7C24"/>
<path d="M574.359 390.7C574.001 388.081 574.065 385.422 574.551 382.823C574.978 380.374 575.65 377.973 576.558 375.658C577.456 373.34 578.59 371.119 579.94 369.031C581.347 366.792 583.109 364.796 585.156 363.122C585.523 365.741 585.461 368.402 584.974 371.002C584.547 373.451 583.872 375.851 582.958 378.164C582.052 380.48 580.916 382.699 579.567 384.787C578.159 387.024 576.401 389.021 574.359 390.7Z" fill="#5E7C24"/>
<path d="M157.344 438.872L156.502 438.366C156.739 437.973 180.21 398.858 183.864 389.113L184.784 389.458C181.098 399.286 158.312 437.261 157.344 438.872Z" fill="#8B9D36"/>
<path d="M176.369 368.602C177.363 371.06 178.123 373.606 178.638 376.207C179.165 378.753 179.553 381.327 179.798 383.916C180.05 386.505 180.156 389.105 180.117 391.706C180.102 394.357 179.834 397.002 179.316 399.602C178.318 397.146 177.557 394.599 177.042 391.998C176.514 389.452 176.129 386.878 175.888 384.288C175.641 381.699 175.536 379.098 175.574 376.498C175.59 373.847 175.857 371.203 176.369 368.602Z" fill="#8B9D36"/>
<path d="M167.707 380.447C168.917 382.736 169.903 385.137 170.651 387.616C171.406 390.039 172.023 392.503 172.501 394.996C172.984 397.488 173.325 400.005 173.522 402.535C173.746 405.115 173.717 407.711 173.437 410.286C172.223 407.998 171.235 405.598 170.488 403.118C169.733 400.694 169.117 398.23 168.644 395.737C168.164 393.244 167.825 390.727 167.628 388.197C167.405 385.617 167.432 383.021 167.707 380.447Z" fill="#8B9D36"/>
<path d="M162.934 394.235C163.999 396.363 164.839 398.597 165.44 400.9C166.047 403.143 166.515 405.421 166.842 407.721C167.176 410.021 167.365 412.339 167.41 414.662C167.479 417.041 167.295 419.421 166.863 421.762C165.793 419.636 164.951 417.402 164.352 415.099C163.744 412.856 163.278 410.577 162.955 408.276C162.625 405.976 162.438 403.658 162.393 401.335C162.325 398.956 162.506 396.576 162.934 394.235Z" fill="#8B9D36"/>
<path d="M156.923 407.999C157.993 409.781 158.846 411.685 159.464 413.67C160.083 415.587 160.565 417.546 160.907 419.531C161.255 421.515 161.459 423.522 161.518 425.535C161.603 427.613 161.436 429.693 161.021 431.731C159.947 429.951 159.092 428.047 158.475 426.061C157.855 424.144 157.375 422.185 157.037 420.199C156.693 418.214 156.491 416.207 156.431 414.194C156.348 412.116 156.513 410.037 156.923 407.999Z" fill="#8B9D36"/>
<path d="M151.62 416.601C152.711 418.147 153.612 419.819 154.302 421.581C154.979 423.263 155.543 424.989 155.989 426.747C156.431 428.491 156.771 430.26 157.008 432.044C157.118 432.943 157.219 433.837 157.286 434.749C157.321 435.678 157.42 436.603 157.583 437.518C157.356 437.396 157.138 437.259 156.93 437.106L156.401 436.576C156.063 436.214 155.754 435.827 155.475 435.418C154.937 434.63 154.461 433.801 154.051 432.94C153.254 431.265 152.629 429.515 152.183 427.715C151.728 425.931 151.434 424.11 151.303 422.274C151.145 420.378 151.251 418.468 151.62 416.601Z" fill="#8B9D36"/>
<path d="M181.52 395.366C183.303 393.412 185.308 391.673 187.495 390.185C189.603 388.721 191.81 387.405 194.1 386.247C196.386 385.082 198.753 384.08 201.181 383.249C203.675 382.365 206.265 381.781 208.897 381.507C207.118 383.466 205.114 385.208 202.925 386.694C200.818 388.159 198.61 389.473 196.317 390.627C194.028 391.787 191.661 392.786 189.233 393.618C186.739 394.5 184.151 395.087 181.52 395.366Z" fill="#8B9D36"/>
<path d="M175.651 406.329C177.93 404.465 180.401 402.848 183.021 401.505C185.565 400.17 188.19 398.994 190.881 397.985C193.568 396.968 196.317 396.122 199.111 395.452C201.967 394.736 204.892 394.328 207.836 394.235C205.56 396.104 203.09 397.724 200.469 399.066C197.925 400.402 195.299 401.576 192.607 402.58C189.918 403.592 187.168 404.436 184.374 405.107C181.518 405.821 178.594 406.231 175.651 406.329Z" fill="#8B9D36"/>
<path d="M168.742 418.514C170.772 416.713 173 415.15 175.385 413.856C177.69 412.576 180.079 411.454 182.535 410.496C184.989 409.532 187.506 408.737 190.069 408.119C192.7 407.454 195.399 407.096 198.113 407.052C196.087 408.858 193.858 410.423 191.472 411.716C189.168 412.997 186.778 414.117 184.32 415.07C181.864 416.029 179.347 416.821 176.784 417.441C174.153 418.104 171.455 418.465 168.742 418.514Z" fill="#8B9D36"/>
<path d="M163.282 427.893C165.05 426.362 167.012 425.07 169.117 424.05C171.131 423.048 173.221 422.208 175.368 421.537C177.512 420.859 179.708 420.355 181.934 420.03C184.245 419.665 186.595 419.61 188.921 419.865C187.156 421.401 185.194 422.696 183.088 423.714C181.074 424.717 178.983 425.556 176.835 426.222C174.689 426.895 172.492 427.396 170.267 427.722C167.956 428.085 165.608 428.143 163.282 427.893Z" fill="#8B9D36"/>
<path d="M158.972 436.309C160.915 434.444 163.067 432.808 165.385 431.436C167.623 430.081 169.951 428.88 172.352 427.842C174.75 426.796 177.218 425.918 179.738 425.215C182.325 424.462 184.992 424.014 187.683 423.879C185.743 425.749 183.592 427.387 181.272 428.758C179.035 430.114 176.706 431.313 174.303 432.347C171.902 433.387 169.434 434.263 166.914 434.967C164.327 435.718 161.662 436.168 158.972 436.309Z" fill="#8B9D36"/>
<path d="M183.427 390.7C183.069 388.081 183.133 385.422 183.619 382.823C184.046 380.374 184.718 377.973 185.626 375.658C186.524 373.34 187.658 371.119 189.008 369.031C190.415 366.792 192.177 364.796 194.224 363.122C194.59 365.741 194.529 368.402 194.042 371.002C193.615 373.451 192.94 375.851 192.026 378.164C191.12 380.48 189.984 382.699 188.635 384.787C187.227 387.024 185.469 389.021 183.427 390.7Z" fill="#8B9D36"/>
<path d="M153.738 440.477L152.755 440.461C152.799 437.778 153.965 374.508 166.621 354.468L167.451 354.993C154.942 374.801 153.749 439.823 153.738 440.477Z" fill="#50661A"/>
<path d="M162.97 363.507C163.359 360.571 163.457 357.605 163.264 354.65C163.101 351.771 162.781 348.903 162.307 346.059C161.848 343.225 161.224 340.42 160.491 337.639C159.758 334.838 158.833 332.144 157.844 329.275C157.564 329.988 157.352 330.725 157.21 331.477C157.052 332.215 156.936 332.963 156.864 333.714C156.711 335.19 156.644 336.673 156.664 338.156C156.708 341.074 156.975 343.984 157.464 346.861C157.94 349.729 158.613 352.561 159.478 355.337C160.334 358.182 161.505 360.922 162.97 363.507Z" fill="#50661A"/>
<path d="M178.526 323.441C176.351 325.539 174.486 327.936 172.986 330.56C171.526 333.048 170.283 335.659 169.273 338.362C168.254 341.061 167.474 343.845 166.942 346.681C166.349 349.646 166.185 352.68 166.456 355.691C168.638 353.598 170.507 351.202 172.005 348.576C173.467 346.088 174.706 343.476 175.71 340.771C176.722 338.069 177.499 335.284 178.032 332.448C178.624 329.484 178.79 326.452 178.526 323.441Z" fill="#50661A"/>
<path d="M188.957 339.566C186.376 341.64 183.938 343.886 181.661 346.289C179.406 348.626 177.254 351.016 175.149 353.418L168.894 360.596C167.845 361.772 166.785 362.93 165.665 364.027C164.558 365.19 163.269 366.163 161.848 366.91C162.714 367.062 163.602 367.039 164.46 366.844C165.325 366.672 166.169 366.406 166.977 366.053C168.558 365.358 170.06 364.496 171.459 363.483C174.173 361.495 176.651 359.204 178.843 356.652C181.023 354.152 182.986 351.47 184.71 348.636C186.485 345.795 187.91 342.749 188.957 339.566Z" fill="#50661A"/>
<path d="M188.957 355.691C185.775 357.28 182.74 359.147 179.887 361.27C177.064 363.334 174.348 365.542 171.75 367.883C169.146 370.219 166.665 372.688 164.318 375.281C161.907 377.896 159.735 380.721 157.827 383.723C161.012 382.14 164.049 380.274 166.901 378.15C169.725 376.086 172.44 373.877 175.034 371.531C177.635 369.192 180.114 366.721 182.462 364.129C184.871 361.513 187.044 358.69 188.957 355.691Z" fill="#50661A"/>
<path d="M187.896 368.343C184.691 369.835 181.624 371.608 178.733 373.642C175.873 375.619 173.116 377.741 170.474 380.001C167.826 382.254 165.298 384.644 162.9 387.161C160.439 389.699 158.21 392.453 156.241 395.391C159.449 393.904 162.518 392.132 165.409 390.097C168.269 388.121 171.024 385.997 173.663 383.733C176.307 381.476 178.833 379.084 181.232 376.568C183.693 374.029 185.923 371.277 187.896 368.343Z" fill="#50661A"/>
<path d="M187.189 381.867C183.999 383.066 180.927 384.557 178.011 386.32C175.132 388.026 172.346 389.885 169.665 391.889C166.98 393.885 164.405 396.027 161.951 398.303C159.431 400.597 157.131 403.122 155.079 405.844C158.271 404.65 161.345 403.161 164.261 401.396C167.141 399.691 169.925 397.83 172.603 395.822C175.285 393.821 177.858 391.678 180.312 389.403C182.831 387.107 185.133 384.585 187.189 381.867Z" fill="#50661A"/>
<path d="M187.896 391.678C184.559 393.021 181.345 394.652 178.292 396.554C175.273 398.401 172.349 400.399 169.532 402.54C166.709 404.675 163.997 406.953 161.408 409.366C158.755 411.795 156.321 414.454 154.136 417.312C157.475 415.974 160.69 414.344 163.743 412.441C166.763 410.595 169.685 408.595 172.5 406.45C175.32 404.311 178.029 402.031 180.619 399.619C183.271 397.189 185.706 394.532 187.896 391.678Z" fill="#50661A"/>
<path d="M190.371 400.871C186.896 402.486 183.542 404.348 180.332 406.442C177.145 408.482 174.062 410.639 171.056 412.89C168.041 415.128 165.109 417.461 162.23 419.872C159.32 422.262 156.572 424.752 153.562 427.217C155.495 426.899 157.382 426.349 159.183 425.577C160.965 424.832 162.708 423.993 164.402 423.064C167.735 421.2 170.939 419.115 173.994 416.823C177.037 414.541 179.947 412.086 182.708 409.469C185.521 406.844 188.086 403.966 190.371 400.871Z" fill="#50661A"/>
<path d="M193.376 410.417C189.621 411.876 185.978 413.608 182.475 415.597C178.994 417.536 175.616 419.619 172.315 421.81C169.014 424.001 165.793 426.305 162.651 428.722C161.08 429.934 159.525 431.168 157.984 432.423C156.494 433.744 154.911 434.956 153.247 436.05C154.29 436.051 155.326 435.873 156.309 435.524C157.296 435.232 158.254 434.876 159.202 434.506C161.092 433.756 162.918 432.898 164.709 431.989C168.265 430.158 171.712 428.124 175.034 425.898C178.356 423.687 181.564 421.31 184.645 418.775C187.781 416.235 190.702 413.439 193.376 410.417Z" fill="#50661A"/>
<path d="M159.922 374.738C159.763 371.548 159.291 368.381 158.514 365.284C157.78 362.243 156.872 359.246 155.796 356.309C154.728 353.368 153.49 350.493 152.089 347.696C150.685 344.826 149.001 342.103 147.06 339.566C147.214 342.757 147.684 345.924 148.462 349.022C149.196 352.063 150.105 355.059 151.186 357.995C152.259 360.933 153.499 363.808 154.9 366.605C156.304 369.474 157.987 372.197 159.922 374.738Z" fill="#50661A"/>
<path d="M157.827 385.776C157.224 382.603 156.316 379.497 155.113 376.499C153.962 373.552 152.644 370.671 151.168 367.872C149.699 365.069 148.07 362.353 146.289 359.736C144.497 357.049 142.446 354.543 140.166 352.256C140.762 355.431 141.669 358.539 142.873 361.536C144.024 364.484 145.343 367.364 146.824 370.16C148.299 372.961 149.929 375.676 151.709 378.293C153.502 380.979 155.551 383.485 157.827 385.776Z" fill="#50661A"/>
<path d="M156.241 396.451C155.208 393.231 153.878 390.113 152.269 387.138C150.715 384.204 149.004 381.355 147.143 378.605C145.29 375.85 143.287 373.198 141.143 370.662C138.984 368.058 136.585 365.663 133.978 363.507C135.006 366.73 136.334 369.849 137.944 372.824C139.498 375.759 141.211 378.606 143.076 381.353C144.934 384.106 146.939 386.756 149.081 389.292C151.241 391.895 153.638 394.292 156.241 396.451Z" fill="#50661A"/>
<path d="M155.079 408.228C153.459 404.747 151.557 401.404 149.393 398.233C147.28 395.079 145.025 392.041 142.628 389.119C140.239 386.19 137.712 383.375 135.047 380.672C132.371 377.918 129.471 375.391 126.377 373.116C127.99 376.601 129.891 379.946 132.057 383.116C134.171 386.27 136.427 389.306 138.827 392.226C141.222 395.15 143.75 397.964 146.414 400.668C149.091 403.42 151.989 405.949 155.079 408.228Z" fill="#50661A"/>
<path d="M154.136 420.441C152.15 417.132 149.898 413.989 147.402 411.045C144.96 408.113 142.388 405.31 139.687 402.638C136.994 399.959 134.175 397.406 131.229 394.98C128.268 392.503 125.108 390.276 121.78 388.319C123.761 391.633 126.011 394.777 128.509 397.72C130.952 400.652 133.525 403.453 136.229 406.122C138.927 408.797 141.748 411.348 144.691 413.776C147.653 416.25 150.812 418.479 154.136 420.441Z" fill="#50661A"/>
<path d="M153.562 428.272C151.359 425.416 148.911 422.759 146.246 420.329C143.644 417.916 140.922 415.636 138.091 413.497C135.264 411.351 132.33 409.352 129.299 407.507C126.235 405.604 123.009 403.975 119.659 402.638C121.858 405.498 124.304 408.157 126.97 410.587C129.572 413 132.295 415.278 135.13 417.413C137.96 419.554 140.895 421.552 143.926 423.398C146.99 425.299 150.214 426.93 153.562 428.272Z" fill="#50661A"/>
<path d="M153.247 434.813C150.604 432.207 147.745 429.83 144.701 427.707C141.712 425.582 138.633 423.617 135.462 421.81C132.297 419.995 129.043 418.334 125.7 416.829C122.327 415.279 118.827 414.021 115.239 413.069C117.879 415.679 120.737 418.058 123.783 420.18C126.771 422.305 129.852 424.268 133.024 426.071C136.193 427.881 139.448 429.539 142.79 431.047C146.163 432.595 149.661 433.855 153.247 434.813Z" fill="#50661A"/>
<path d="M153.491 439.055C150.32 436.867 146.976 434.941 143.492 433.296C140.062 431.64 136.564 430.164 133.009 428.843C129.455 427.521 125.838 426.366 122.159 425.379C118.445 424.352 114.652 423.635 110.82 423.233C113.987 425.427 117.331 427.356 120.816 428.999C124.248 430.655 127.743 432.137 131.302 433.446C134.859 434.762 138.473 435.923 142.154 436.904C145.869 437.927 149.66 438.647 153.491 439.055Z" fill="#50661A"/>
<path d="M151.773 438.717C150.805 437.106 128.019 399.131 124.333 389.303L125.252 388.957C128.907 398.702 152.378 437.818 152.615 438.211L151.773 438.717Z" fill="#5E7C24"/>
<path d="M132.698 368.602C131.705 371.06 130.945 373.606 130.43 376.207C129.902 378.753 129.515 381.327 129.27 383.916C129.018 386.505 128.912 389.105 128.951 391.706C128.966 394.357 129.234 397.002 129.752 399.602C130.75 397.146 131.511 394.599 132.026 391.998C132.554 389.452 132.939 386.878 133.18 384.288C133.427 381.699 133.532 379.098 133.494 376.498C133.478 373.847 133.211 371.203 132.698 368.602Z" fill="#5E7C24"/>
<path d="M141.361 380.447C140.151 382.736 139.165 385.137 138.417 387.616C137.662 390.039 137.045 392.503 136.567 394.996C136.084 397.488 135.743 400.005 135.547 402.535C135.322 405.115 135.351 407.711 135.631 410.286C136.845 407.998 137.833 405.598 138.58 403.118C139.335 400.694 139.951 398.23 140.424 395.737C140.904 393.244 141.243 390.727 141.44 388.197C141.663 385.617 141.636 383.021 141.361 380.447Z" fill="#5E7C24"/>
<path d="M146.134 394.235C145.068 396.363 144.229 398.597 143.628 400.9C143.021 403.143 142.553 405.421 142.225 407.721C141.892 410.021 141.703 412.339 141.658 414.662C141.589 417.041 141.773 419.421 142.205 421.762C143.275 419.636 144.117 417.402 144.716 415.099C145.324 412.856 145.79 410.577 146.113 408.276C146.443 405.976 146.63 403.658 146.675 401.335C146.743 398.956 146.561 396.576 146.134 394.235Z" fill="#5E7C24"/>
<path d="M152.145 407.999C151.075 409.781 150.222 411.685 149.603 413.67C148.985 415.587 148.503 417.546 148.161 419.531C147.813 421.515 147.608 423.522 147.549 425.535C147.465 427.613 147.632 429.693 148.047 431.731C149.121 429.951 149.976 428.047 150.593 426.061C151.213 424.144 151.693 422.185 152.031 420.199C152.374 418.214 152.577 416.207 152.637 414.194C152.72 412.116 152.554 410.037 152.145 407.999Z" fill="#5E7C24"/>
<path d="M157.448 416.601C156.357 418.147 155.456 419.819 154.765 421.581C154.088 423.263 153.525 424.989 153.079 426.747C152.637 428.491 152.297 430.26 152.06 432.044C151.95 432.943 151.849 433.837 151.781 434.749C151.747 435.678 151.648 436.603 151.485 437.518C151.712 437.396 151.93 437.259 152.137 437.106L152.667 436.576C153.004 436.214 153.314 435.827 153.593 435.418C154.13 434.63 154.606 433.801 155.016 432.94C155.813 431.265 156.439 429.515 156.885 427.715C157.339 425.931 157.634 424.11 157.764 422.274C157.923 420.378 157.816 418.468 157.448 416.601Z" fill="#5E7C24"/>
<path d="M127.548 395.366C125.765 393.412 123.76 391.673 121.573 390.185C119.465 388.721 117.258 387.405 114.968 386.247C112.682 385.082 110.315 384.08 107.887 383.249C105.393 382.365 102.803 381.781 100.171 381.507C101.95 383.466 103.954 385.208 106.143 386.694C108.25 388.159 110.458 389.473 112.751 390.627C115.04 391.787 117.407 392.786 119.835 393.618C122.329 394.5 124.917 395.087 127.548 395.366Z" fill="#5E7C24"/>
<path d="M133.417 406.329C131.137 404.465 128.667 402.848 126.047 401.505C123.503 400.17 120.878 398.994 118.187 397.985C115.5 396.968 112.751 396.122 109.957 395.452C107.1 394.736 104.175 394.328 101.232 394.235C103.508 396.104 105.978 397.724 108.599 399.066C111.143 400.402 113.769 401.575 116.461 402.58C119.15 403.592 121.9 404.436 124.694 405.107C127.55 405.821 130.474 406.231 133.417 406.329Z" fill="#5E7C24"/>
<path d="M140.326 418.514C138.296 416.713 136.067 415.15 133.682 413.856C131.378 412.576 128.989 411.454 126.532 410.496C124.079 409.532 121.562 408.737 118.999 408.119C116.368 407.454 113.669 407.096 110.955 407.052C112.981 408.858 115.209 410.423 117.596 411.716C119.9 412.997 122.29 414.117 124.748 415.07C127.204 416.029 129.721 416.821 132.284 417.441C134.915 418.104 137.613 418.465 140.326 418.514Z" fill="#5E7C24"/>
<path d="M145.786 427.893C144.018 426.362 142.056 425.07 139.951 424.05C137.937 423.048 135.847 422.208 133.7 421.537C131.555 420.859 129.36 420.355 127.134 420.03C124.823 419.665 122.473 419.61 120.147 419.865C121.912 421.401 123.873 422.696 125.98 423.714C127.994 424.717 130.085 425.556 132.233 426.222C134.379 426.895 136.576 427.396 138.801 427.722C141.112 428.085 143.46 428.143 145.786 427.893Z" fill="#5E7C24"/>
<path d="M150.096 436.309C148.153 434.444 146.001 432.808 143.683 431.436C141.445 430.081 139.117 428.88 136.716 427.842C134.317 426.796 131.849 425.918 129.33 425.215C126.742 424.462 124.076 424.014 121.385 423.879C123.325 425.749 125.476 427.387 127.796 428.758C130.033 430.114 132.362 431.313 134.765 432.347C137.166 433.387 139.634 434.263 142.154 434.967C144.741 435.718 147.406 436.168 150.096 436.309Z" fill="#5E7C24"/>
<path d="M125.64 390.7C125.999 388.081 125.935 385.422 125.449 382.823C125.022 380.374 124.35 377.973 123.442 375.658C122.543 373.34 121.41 371.119 120.06 369.031C118.653 366.792 116.891 364.796 114.844 363.122C114.477 365.741 114.539 368.402 115.026 371.002C115.453 373.451 116.128 375.851 117.042 378.164C117.947 380.48 119.084 382.699 120.433 384.787C121.841 387.024 123.599 389.021 125.64 390.7Z" fill="#5E7C24"/>
<path d="M244.268 395.161C200.051 348.366 195.195 178.951 289.45 192.087C339.063 199.001 432.091 179.851 494.755 158.471C555.687 137.683 518.744 296.185 449.574 361.545C380.404 426.905 288.486 441.955 244.268 395.161Z" fill="#D5EFC8"/>
<path d="M232.557 408.208C256.145 433.171 292.664 443.067 335.388 436.071C378.033 429.089 421.772 406.105 458.548 371.353C486.198 345.227 512.208 301.842 528.124 255.302C543.328 210.843 546.371 172.615 536.064 155.536C530.304 145.99 520.446 143.269 507.555 147.667L507.911 148.708C520.428 144.438 529.584 146.926 535.122 156.104C545.265 172.912 542.184 210.787 527.082 254.946C511.222 301.325 485.32 344.541 457.792 370.554C421.174 405.155 377.64 428.038 335.21 434.985C292.858 441.92 256.686 432.141 233.356 407.452L232.557 408.208Z" fill="#D5EFC8"/>
<path d="M310.058 259.096C312.365 263.697 313.175 268.904 312.377 273.988C312.314 274.475 312.141 274.941 311.87 275.351C311.599 275.76 311.237 276.102 310.814 276.35C310.509 276.549 310.14 276.623 309.782 276.557C308.448 276.243 307.742 273.31 307.906 269.156C307.262 270.809 306.773 272.519 306.447 274.263C305.579 278.909 306.392 281.048 305.092 281.977C303.6 283.042 300.133 281.939 298.42 279.684C296.529 277.193 297.23 273.714 298.709 266.857C299.273 264.237 299.97 261.646 300.796 259.096H310.058Z" fill="#F9977A"/>
<path d="M596.921 441.469H103.079C102.813 441.469 102.559 441.364 102.372 441.176C102.184 440.989 102.079 440.734 102.079 440.469C102.079 440.204 102.184 439.949 102.372 439.762C102.559 439.574 102.813 439.469 103.079 439.469H596.921C597.187 439.469 597.441 439.574 597.629 439.762C597.816 439.949 597.921 440.204 597.921 440.469C597.921 440.734 597.816 440.989 597.629 441.176C597.441 441.364 597.187 441.469 596.921 441.469Z" fill="#935B50"/>
<path d="M324.02 409.781L322.232 420.021C322.232 420.021 311.079 435.306 303.12 422.155L305.748 409.781H324.02Z" fill="#F9977A"/>
<path d="M351.885 409.891L347.748 431.415C347.748 431.415 361.414 437.298 369.373 424.148L368.373 410.38L351.885 409.891Z" fill="#F9977A"/>
<path d="M370.808 250.58L372.596 412.469C372.564 413.045 372.313 413.586 371.894 413.983C371.476 414.379 370.921 414.599 370.345 414.599H349.391C349.088 414.599 348.789 414.539 348.51 414.42C348.232 414.302 347.98 414.129 347.77 413.912C347.559 413.694 347.395 413.437 347.286 413.154C347.178 412.872 347.127 412.571 347.137 412.268L342.095 265.224L325.603 412.743C325.509 413.264 325.236 413.735 324.83 414.074C324.425 414.414 323.913 414.599 323.384 414.599H304.608C304.287 414.599 303.969 414.531 303.676 414.398C303.383 414.265 303.122 414.071 302.911 413.829C302.699 413.586 302.541 413.302 302.449 412.994C302.356 412.686 302.331 412.362 302.374 412.043L316.227 250.58L370.808 250.58Z" fill="#FFBA55"/>
<path d="M356.65 248.519L357.386 269.275L358.042 290.034L359.348 331.552L360.479 373.074L361.042 393.836L361.522 414.6L360.784 393.843L360.129 373.085L358.823 331.567L357.693 290.045L357.131 269.283L356.65 248.519Z" fill="#E6952A"/>
<path d="M331.254 248.519L329.171 269.293L327.006 290.058L322.673 331.587L318.165 373.098L315.908 393.853L313.57 414.6L315.652 393.826L317.817 373.061L322.151 331.532L326.659 290.021L328.916 269.266L331.254 248.519Z" fill="#E6952A"/>
<path d="M361.522 250.58C361.67 252.319 361.928 254.048 362.292 255.756C362.637 257.456 363.149 259.118 363.821 260.717C364.457 262.321 365.389 263.79 366.569 265.049C367.771 266.306 369.307 267.195 370.997 267.612C370.12 267.492 369.267 267.241 368.465 266.868C367.668 266.465 366.933 265.95 366.284 265.337C365.017 264.078 364.015 262.577 363.338 260.923C362.669 259.285 362.186 257.577 361.897 255.832C361.596 254.098 361.47 252.338 361.522 250.58Z" fill="#E6952A"/>
<path d="M324.901 253.64C324.182 256.261 323.073 258.76 321.613 261.053C320.872 262.212 319.946 263.242 318.874 264.104C318.321 264.528 317.695 264.845 317.026 265.04C316.356 265.215 315.648 265.189 314.993 264.964C315.648 265.057 316.315 264.999 316.944 264.795C317.573 264.591 318.148 264.246 318.623 263.786C319.617 262.908 320.476 261.89 321.174 260.763C321.911 259.647 322.579 258.486 323.174 257.289C323.787 256.095 324.352 254.875 324.901 253.64Z" fill="#E6952A"/>
<path d="M322.232 420.021C322.232 420.021 331.997 432.219 326.584 439.409C326.301 439.78 325.934 440.081 325.514 440.286C325.093 440.491 324.631 440.596 324.163 440.591L275.75 440.328C275.528 440.326 275.309 440.278 275.107 440.185C274.905 440.093 274.725 439.96 274.579 439.793C274.432 439.627 274.322 439.431 274.256 439.219C274.19 439.008 274.169 438.784 274.196 438.564C274.473 436.056 291.891 431.812 303.12 422.155C303.12 422.155 317.675 426.338 322.232 420.021Z" fill="#935B50"/>
<path d="M349.975 420.021C349.975 420.021 340.21 432.219 345.622 439.409C345.906 439.78 346.273 440.081 346.693 440.286C347.113 440.491 347.576 440.596 348.044 440.591L396.457 440.328C396.679 440.326 396.898 440.278 397.1 440.185C397.301 440.093 397.481 439.96 397.628 439.793C397.775 439.627 397.885 439.431 397.951 439.219C398.017 439.008 398.037 438.784 398.011 438.564C397.733 436.056 380.316 431.812 369.087 422.155C369.087 422.155 354.532 426.338 349.975 420.021Z" fill="#935B50"/>
<path d="M366.115 123.268L365.444 132.983C365.226 136.924 365.427 140.876 366.043 144.775C366.749 149.688 365.421 153.986 362.51 156.078C361.153 157.017 359.547 157.528 357.897 157.546V167.318C358.431 175.151 355.69 181.64 352.042 182.659C347.82 183.839 340.309 178.271 337.785 167.318V144.462C337.785 144.462 329.566 142.948 334.324 134.838C337.152 130.104 338.819 124.768 339.19 119.267L348.057 112.562L366.115 123.268Z" fill="#F9977A"/>
<path d="M346.003 127.448C345.871 127.449 345.742 127.405 345.637 127.324C345.532 127.244 345.456 127.131 345.422 127.002C345.388 126.874 345.397 126.739 345.448 126.616C345.499 126.494 345.589 126.392 345.705 126.326C348.977 124.456 352.509 126.239 352.658 126.314C352.799 126.387 352.905 126.513 352.953 126.665C353.001 126.816 352.987 126.98 352.915 127.122C352.842 127.263 352.716 127.37 352.565 127.418C352.414 127.467 352.249 127.454 352.108 127.382C352.078 127.366 348.998 125.829 346.3 127.369C346.21 127.421 346.108 127.448 346.003 127.448Z" fill="#1E1D22"/>
<path d="M357.898 127.448C357.766 127.449 357.637 127.405 357.532 127.324C357.426 127.244 357.351 127.131 357.317 127.002C357.283 126.874 357.292 126.739 357.343 126.616C357.394 126.494 357.484 126.392 357.599 126.326C360.873 124.456 364.404 126.239 364.552 126.314C364.693 126.387 364.8 126.513 364.848 126.665C364.896 126.816 364.882 126.98 364.809 127.122C364.737 127.263 364.611 127.37 364.46 127.418C364.309 127.467 364.144 127.454 364.003 127.382C363.971 127.366 360.892 125.829 358.195 127.369C358.105 127.421 358.002 127.448 357.898 127.448Z" fill="#1E1D22"/>
<path d="M361.682 135.343C362.149 135.326 362.591 135.13 362.916 134.793C363.241 134.457 363.422 134.008 363.422 133.54C363.422 133.073 363.241 132.624 362.916 132.288C362.591 131.951 362.149 131.754 361.682 131.738C361.215 131.754 360.772 131.951 360.447 132.288C360.122 132.624 359.941 133.073 359.941 133.54C359.941 134.008 360.122 134.457 360.447 134.793C360.772 135.13 361.215 135.326 361.682 135.343Z" fill="#1E1D22"/>
<path d="M349.355 135.235C349.822 135.218 350.264 135.021 350.589 134.685C350.914 134.349 351.096 133.9 351.096 133.432C351.096 132.965 350.914 132.516 350.589 132.179C350.264 131.843 349.822 131.646 349.355 131.63C348.887 131.646 348.445 131.843 348.12 132.179C347.795 132.516 347.614 132.965 347.614 133.432C347.614 133.9 347.795 134.349 348.12 134.685C348.445 135.021 348.887 135.218 349.355 135.235Z" fill="#1E1D22"/>
<path d="M357.435 141.933L357.277 140.935C357.485 140.919 357.685 140.848 357.857 140.731C358.03 140.614 358.169 140.453 358.26 140.266C359.141 138.442 356.886 133.714 355.943 132.046L356.824 131.548C357.197 132.209 360.438 138.081 359.17 140.705C359.008 141.039 358.764 141.327 358.46 141.542C358.157 141.756 357.804 141.891 357.435 141.933Z" fill="#DD765E"/>
<path d="M353 149.998C354.907 149.998 359.5 151.021 359.5 149.498C359.5 147.975 356.5 149 352.5 148.001C350.593 148.001 347.5 145 347 146.001C347 147.524 351.093 149.998 353 149.998Z" fill="#DD2F22"/>
<path d="M357.897 157.546C357.897 157.546 351.409 157.215 348.273 154.244C348.273 154.244 352.274 162.196 357.897 163.277V157.546Z" fill="#DD765E"/>
<path d="M370.873 120.348C370.873 120.348 370.765 115.915 362.979 113.968C355.194 112.022 353.68 107.697 349.193 108.886C346.294 109.788 343.745 111.563 341.894 113.968C341.894 113.968 327.8 111.812 334.631 134.3C334.631 134.3 339.731 140.245 340.272 134.946C340.812 129.648 342.002 120.564 344.921 118.185C347.841 115.807 352.382 118.185 354.113 119.483C355.843 120.781 366.656 128.458 367.737 127.809C368.819 127.161 373.144 125.863 370.873 120.348Z" fill="#1E1D22"/>
<path d="M392.161 197.893L399.363 190.186C399.363 190.186 398.478 185.891 406.185 185.891C413.892 185.891 415.914 183.869 415.914 183.869C415.914 183.869 418.062 183.743 416.798 185.764C415.535 187.786 411.997 189.302 411.492 189.428C410.986 189.555 417.196 190.88 417.196 190.88C417.196 190.88 422.737 186.649 423.621 190.06C423.621 190.06 426.401 189.3 426.401 190.88C426.401 190.88 428.675 191.45 427.917 192.84C427.917 192.84 429.237 193.85 428.072 194.735C426.906 195.619 419.831 199.157 419.831 199.157C419.831 199.157 404.669 198.272 403.532 199.157C402.395 200.041 398.984 205.6 398.984 205.6L392.161 197.893Z" fill="#F9977A"/>
<path d="M411.618 194.734C410.485 193.897 409.378 193.076 408.218 192.333C407.641 191.957 407.044 191.622 406.442 191.288C405.824 190.973 405.19 190.689 404.543 190.439C405.962 190.59 407.322 191.088 408.502 191.89C409.096 192.275 409.658 192.707 410.183 193.182C410.712 193.65 411.193 194.17 411.618 194.734Z" fill="#DD765E"/>
<path d="M423.621 190.06C422.502 190.747 421.333 191.35 420.125 191.865C419.522 192.12 418.919 192.374 418.3 192.591C417.684 192.821 417.056 193.02 416.419 193.187C416.976 192.835 417.55 192.513 418.139 192.219C418.72 191.915 419.318 191.648 419.915 191.382C421.116 190.851 422.355 190.409 423.621 190.06Z" fill="#DD765E"/>
<path d="M426.401 190.88C425.062 191.809 423.669 192.656 422.229 193.418C421.51 193.798 420.791 194.176 420.053 194.518C419.317 194.865 418.577 195.205 417.809 195.493C418.473 195.012 419.165 194.583 419.861 194.161C420.555 193.735 421.267 193.344 421.98 192.955C423.411 192.176 424.887 191.483 426.401 190.88Z" fill="#DD765E"/>
<path d="M427.917 192.84C426.769 193.672 425.566 194.425 424.315 195.092C423.691 195.424 423.067 195.755 422.423 196.05C421.781 196.35 421.136 196.642 420.462 196.883C421.031 196.45 421.629 196.068 422.229 195.694C422.828 195.315 423.446 194.972 424.064 194.63C425.306 193.946 426.593 193.348 427.917 192.84Z" fill="#DD765E"/>
<path d="M419.073 196.883C418.227 196.324 417.411 195.723 416.627 195.082C415.843 194.449 415.08 193.824 414.271 193.187C414.769 193.326 415.246 193.533 415.688 193.8C416.133 194.057 416.556 194.348 416.955 194.671C417.354 194.99 417.732 195.335 418.087 195.703C418.449 196.067 418.779 196.462 419.073 196.883Z" fill="#DD765E"/>
<path d="M399.489 206.359L391.15 196.63L385.464 203.074C385.464 203.074 382.811 173.888 373.588 169.339C364.365 164.791 358.047 162.39 358.047 162.39C358.672 169.815 352.821 175.428 347.497 175.214C342.076 174.997 336.623 168.716 338.085 161.253C332.779 162.025 318.755 161.501 313.195 172.498C307.509 183.743 297.654 219.625 297.654 219.625L299.493 260.55H312.82L315.469 220.004L322.797 198.778L316.227 250.58C324.847 254.288 334.133 256.2 343.518 256.2C352.902 256.2 362.188 254.288 370.808 250.58V237.377C370.808 237.377 381.611 235.102 385.401 230.554C389.192 226.005 399.489 206.359 399.489 206.359Z" fill="#6C7FD8"/>
<path d="M373.841 216.435C375.614 214.065 377.541 211.828 379.455 209.581C380.439 208.481 381.406 207.366 382.406 206.28C383.407 205.195 384.414 204.115 385.464 203.073C384.578 204.259 383.647 205.406 382.711 206.547C381.773 207.688 380.803 208.8 379.85 209.927C377.89 212.133 375.942 214.351 373.841 216.435Z" fill="#065082"/>
<path d="M370.809 237.376C370.388 233.093 370.166 228.789 370.076 224.484C369.984 220.178 370.064 215.87 370.237 211.565C370.452 207.262 370.832 202.972 371.376 198.693C371.948 194.423 372.771 190.19 373.841 186.017C373.436 188.131 372.961 190.229 372.673 192.361C372.296 194.477 372.048 196.612 371.778 198.743C371.315 203.015 370.936 207.296 370.762 211.59C370.545 215.882 370.474 220.18 370.479 224.479C370.482 226.629 370.513 228.779 370.571 230.928C370.609 233.078 370.688 235.228 370.809 237.376Z" fill="#065082"/>
<path d="M322.797 198.778C323.046 197.78 323.389 196.807 323.821 195.874C324.037 195.41 324.254 194.947 324.508 194.501C324.751 194.046 325.024 193.607 325.324 193.187C325.207 193.689 325.057 194.184 324.877 194.668C324.709 195.153 324.505 195.622 324.3 196.091C323.885 197.032 323.381 197.931 322.797 198.778Z" fill="#065082"/>
<path d="M315.469 220.004C313.458 219.375 311.376 219 309.272 218.888C308.231 218.848 307.187 218.912 306.158 219.077C305.122 219.267 304.113 219.578 303.15 220.004C304.037 219.39 305.027 218.942 306.074 218.68C307.127 218.427 308.21 218.32 309.292 218.362C310.369 218.412 311.437 218.577 312.479 218.854C313.517 219.118 314.521 219.504 315.469 220.004Z" fill="#065082"/>
<path d="M326.271 187.533C326.46 185.728 326.45 183.909 326.243 182.106C326.053 180.317 325.61 178.564 324.928 176.899C324.269 175.229 323.29 173.703 322.048 172.407C320.794 171.101 319.341 170.001 317.743 169.15C319.453 169.833 321.014 170.843 322.337 172.124C323.666 173.42 324.714 174.978 325.414 176.698C326.096 178.415 326.512 180.226 326.645 182.069C326.786 183.899 326.661 185.739 326.271 187.533Z" fill="#065082"/>
<path d="M361.522 242.873C358.416 242.864 355.318 242.558 352.271 241.957C349.213 241.369 346.22 240.48 343.336 239.303C340.45 238.109 337.75 236.506 335.32 234.542C334.127 233.538 333.024 232.432 332.025 231.234C331.061 230.016 330.213 228.709 329.493 227.332C331.081 229.984 333.142 232.321 335.575 234.227C336.791 235.168 338.067 236.027 339.396 236.8C340.737 237.553 342.12 238.227 343.54 238.819C346.387 240.001 349.337 240.92 352.352 241.562C353.858 241.897 355.377 242.172 356.909 242.386C358.437 242.613 359.975 242.796 361.522 242.873Z" fill="#065082"/>
<path d="M422.949 182.152C436.854 182.152 448.127 170.88 448.127 156.975C448.127 143.069 436.854 131.797 422.949 131.797C409.044 131.797 397.771 143.069 397.771 156.975C397.771 170.88 409.044 182.152 422.949 182.152Z" fill="#C0D6F2"/>
<path d="M443.659 142.662C445.623 145.5 446.981 148.713 447.65 152.099C448.319 155.485 448.284 158.972 447.547 162.344C447.531 162.353 447.516 162.365 447.5 162.374C446.809 162.742 445.326 163.027 444.603 162.374C444.208 161.755 443.905 161.082 443.704 160.376C443.342 159.428 443.266 159.119 442.905 158.877C442.446 158.569 442.06 158.729 441.806 158.378C441.578 158.063 441.797 157.808 441.706 157.279C441.495 156.574 441.033 155.97 440.408 155.581C439.549 154.89 439.107 154.962 438.954 154.492C438.857 154.196 438.965 153.965 439.409 152.984C439.76 152.308 440.06 151.607 440.308 150.886C440.391 150.023 440.217 149.154 439.808 148.389C439.163 146.534 439.411 146.199 438.909 144.293C437.898 140.455 436.143 138.978 436.512 138.599C436.967 138.133 440.452 139.537 443.659 142.662Z" fill="#A6B862"/>
<path d="M401.381 143.981C403.12 142.191 404.78 141.198 405.245 141.496C405.448 141.626 405.315 141.931 405.645 142.695C405.96 143.426 406.729 144.646 407.643 144.693C408.052 144.714 408.241 144.486 409.541 143.394C411.476 141.767 411.808 141.639 412.138 141.696C412.982 141.841 413.654 143.168 413.337 143.694C413.026 144.21 411.904 143.721 411.539 144.293C411.433 144.602 411.435 144.938 411.544 145.246C411.653 145.554 411.862 145.816 412.138 145.991C412.471 146.14 412.834 146.209 413.199 146.191C413.563 146.174 413.918 146.071 414.236 145.891C415.096 145.612 415.836 145.049 416.333 144.293C416.867 143.412 416.705 142.721 417.133 142.595C417.52 142.48 418.067 142.925 418.331 143.394C418.787 144.203 418.233 144.792 418.631 145.392C419.144 146.164 420.434 145.745 420.629 146.291C420.81 146.797 419.873 147.635 419.13 148.089C418.211 148.651 417.899 148.435 416.733 148.888C414.989 149.566 415.106 150.275 413.536 150.786C412.173 151.229 411.719 150.813 411.139 151.385C410.663 151.855 410.588 152.598 410.44 154.082C410.322 155.262 410.458 155.544 410.54 155.681C410.753 156.001 411.058 156.248 411.414 156.391C411.771 156.533 412.163 156.565 412.537 156.48C412.936 156.374 413.203 156.11 413.736 155.581C414.348 154.975 414.348 154.743 414.735 154.582C415.33 154.334 415.612 154.764 416.134 154.582C416.828 154.339 417.105 153.306 417.432 152.085C417.763 150.852 417.691 150.335 418.131 150.087C418.491 149.884 418.715 150.13 419.53 150.087C420.151 150.011 420.757 149.842 421.328 149.587C422.045 149.335 422.78 149.134 423.526 148.988C424.608 148.854 425.706 148.991 426.722 149.387C428.021 149.718 429.199 150.411 430.119 151.385C430.617 151.88 431.008 152.473 431.266 153.126C431.524 153.779 431.644 154.479 431.617 155.181C431.486 156.297 430.953 157.326 430.119 158.078C428.962 159.089 428.187 158.619 427.122 159.577C426.272 160.429 425.773 161.57 425.723 162.773C425.695 163.292 425.743 164.011 427.322 167.268C428.55 169.802 428.871 170.09 429.02 171.164C429.186 172.366 429.125 174.469 428.021 175.06C427.41 175.387 427.111 174.912 424.724 174.66C423.83 174.542 422.927 174.509 422.027 174.56C420.673 174.653 420.509 174.89 419.73 174.76C418.869 174.576 418.075 174.162 417.432 173.561C416.443 172.754 416.537 172.39 415.534 171.564C414.919 171.085 414.248 170.682 413.536 170.365C412.077 169.626 411.687 169.66 410.44 168.966C409.351 168.362 408.512 167.882 408.542 167.268C408.591 167.038 408.7 166.824 408.858 166.649C409.016 166.474 409.217 166.343 409.441 166.269C410.19 165.978 410.601 166.541 411.239 166.269C411.55 166.092 411.801 165.827 411.961 165.507C412.121 165.187 412.182 164.826 412.138 164.471C412.082 163.902 411.733 163.176 411.339 163.173C410.839 163.168 410.865 164.327 409.94 164.871C409.526 165.063 409.07 165.146 408.615 165.111C408.161 165.076 407.722 164.924 407.343 164.671C406.663 164.252 405.87 163.355 406.044 162.573C406.178 161.977 406.77 161.915 406.943 161.175C407.057 160.687 406.964 160.013 406.644 159.876C406.041 159.619 404.778 161.322 404.146 162.174C403.108 163.574 402.589 164.274 402.448 165.27C402.277 166.485 402.711 167.294 402.149 167.868C401.988 168.015 401.799 168.127 401.592 168.196C401.385 168.265 401.166 168.289 400.95 168.267C400.74 168.245 400.537 168.181 400.352 168.081C398.494 164.299 397.614 160.11 397.794 155.9C397.974 151.69 399.207 147.592 401.381 143.981Z" fill="#A6B862"/>
<path d="M443.837 138.224C446.332 137.88 448.853 137.761 451.37 137.868C453.961 137.881 456.507 138.537 458.782 139.778C459.379 140.148 459.891 140.639 460.285 141.22C460.679 141.802 460.947 142.459 461.069 143.151C461.218 144.53 460.938 145.921 460.267 147.135C459.002 149.407 457.339 151.433 455.357 153.117C451.51 156.446 447.285 159.311 442.769 161.652C438.297 164.02 433.667 166.076 428.913 167.807C424.158 169.535 419.292 170.941 414.349 172.016C409.39 173.128 404.324 173.691 399.243 173.696C396.66 173.71 394.089 173.344 391.613 172.612C390.322 172.216 389.133 171.544 388.129 170.641C387.615 170.156 387.219 169.559 386.97 168.898C386.721 168.236 386.626 167.526 386.693 166.822C386.86 165.5 387.352 164.24 388.124 163.155C388.835 162.093 389.656 161.11 390.574 160.221C392.38 158.462 394.36 156.892 396.485 155.536C394.503 157.058 392.655 158.748 390.96 160.585C390.126 161.493 389.391 162.487 388.767 163.55C388.134 164.554 387.758 165.699 387.672 166.883C387.641 167.433 387.738 167.983 387.954 168.49C388.17 168.996 388.499 169.447 388.917 169.806C389.823 170.54 390.876 171.071 392.005 171.361C394.37 171.958 396.808 172.219 399.247 172.135C404.2 171.982 409.124 171.323 413.943 170.167C418.792 169.064 423.563 167.648 428.229 165.928C432.908 164.25 437.472 162.263 441.889 159.982C446.318 157.768 450.49 155.074 454.331 151.949C456.224 150.433 457.84 148.601 459.109 146.534C459.709 145.568 459.998 144.44 459.937 143.304C459.858 142.755 459.664 142.229 459.37 141.759C459.075 141.29 458.685 140.887 458.225 140.578C456.138 139.297 453.77 138.547 451.326 138.393C448.837 138.154 446.334 138.098 443.837 138.224Z" fill="#F9E0C0"/>
<path d="M412.437 173.247L409.862 173.749L410.546 170.274L408.606 167.311L411.181 166.809L412.285 167.946L417.829 166.849L413.393 161.042L415.968 160.54L421.707 166.093L426.198 165.217C426.71 165.118 427.24 165.226 427.673 165.517C428.105 165.809 428.404 166.26 428.504 166.772C428.603 167.284 428.496 167.814 428.205 168.247C427.914 168.679 427.463 168.979 426.951 169.079L422.505 169.946L419.259 177.257L416.684 177.759L418.593 170.71L413.036 171.794L412.437 173.247Z" fill="#6C7FD8"/>
<path d="M250.977 265.29H220.63C219.021 265.29 217.477 265.929 216.339 267.067C215.201 268.205 214.561 269.749 214.561 271.359L214.561 310.828H220.63V274.393C220.63 273.589 220.95 272.817 221.519 272.248C222.088 271.679 222.86 271.359 223.665 271.359H247.942C248.747 271.359 249.519 271.679 250.088 272.248C250.657 272.817 250.977 273.589 250.977 274.393V310.828H257.046L257.046 271.359C257.046 270.562 256.889 269.773 256.584 269.036C256.279 268.3 255.832 267.631 255.268 267.067C254.705 266.504 254.036 266.057 253.299 265.752C252.563 265.447 251.774 265.29 250.977 265.29Z" fill="#935B50"/>
<path d="M205.16 423.122L205.148 423.134C204.398 423.208 203.702 423.559 203.196 424.117C202.69 424.676 202.41 425.403 202.41 426.157V432.226C202.41 434.642 203.37 436.959 205.078 438.667C206.787 440.376 209.104 441.336 211.52 441.336C213.936 441.336 216.253 440.376 217.962 438.667C219.67 436.959 220.63 434.642 220.63 432.226V426.157C220.627 425.356 220.308 424.589 219.741 424.023C219.175 423.457 218.408 423.137 217.608 423.134H205.469C205.366 423.124 205.263 423.12 205.16 423.122Z" fill="#935B50"/>
<path d="M253.72 423.122L253.708 423.134C252.958 423.208 252.262 423.559 251.756 424.117C251.25 424.676 250.97 425.403 250.97 426.157V432.226C250.97 434.642 251.93 436.959 253.638 438.667C255.347 440.376 257.664 441.336 260.08 441.336C262.496 441.336 264.814 440.376 266.522 438.667C268.23 436.959 269.19 434.642 269.19 432.226V426.157C269.187 425.356 268.868 424.589 268.301 424.023C267.735 423.457 266.968 423.137 266.168 423.134H254.029C253.926 423.124 253.823 423.12 253.72 423.122Z" fill="#935B50"/>
<path d="M199.388 307.806C196.98 307.816 194.673 308.777 192.97 310.48C191.268 312.183 190.306 314.489 190.296 316.897V420.087C190.305 422.498 191.265 424.808 192.967 426.515C194.67 428.222 196.977 429.188 199.388 429.203H272.219C274.632 429.189 276.942 428.224 278.649 426.517C280.355 424.811 281.32 422.5 281.335 420.087V316.897C281.319 314.487 280.353 312.18 278.646 310.478C276.939 308.775 274.63 307.815 272.219 307.806H199.388Z" fill="#A2AEE6"/>
<path d="M235.743 325.977C234.942 325.992 234.179 326.323 233.622 326.899C233.064 327.474 232.757 328.247 232.769 329.048V407.937C232.769 408.741 233.088 409.513 233.657 410.082C234.227 410.652 234.998 410.971 235.803 410.971C236.608 410.971 237.38 410.652 237.949 410.082C238.518 409.513 238.838 408.741 238.838 407.937V329.048C238.845 328.64 238.768 328.235 238.613 327.858C238.458 327.481 238.228 327.139 237.937 326.854C237.651 326.566 237.308 326.339 236.931 326.188C236.553 326.037 236.149 325.965 235.743 325.977ZM211.171 338.116C210.421 338.202 209.73 338.564 209.233 339.132C208.735 339.7 208.467 340.432 208.479 341.187V395.798C208.481 396.603 208.803 397.375 209.373 397.943C209.943 398.512 210.715 398.831 211.52 398.831C212.325 398.831 213.097 398.512 213.667 397.943C214.237 397.375 214.559 396.603 214.561 395.798V341.187C214.567 340.755 214.481 340.326 214.31 339.93C214.138 339.534 213.884 339.178 213.566 338.886C213.246 338.593 212.866 338.372 212.453 338.239C212.039 338.106 211.602 338.064 211.171 338.116ZM259.389 338.116C258.639 338.202 257.948 338.564 257.45 339.132C256.953 339.7 256.684 340.432 256.697 341.187V395.798C256.698 396.604 257.019 397.376 257.589 397.945C258.16 398.514 258.932 398.833 259.738 398.833C260.543 398.833 261.316 398.514 261.886 397.945C262.456 397.376 262.777 396.604 262.778 395.798V341.187C262.784 340.755 262.698 340.326 262.527 339.93C262.355 339.534 262.102 339.178 261.783 338.886C261.463 338.593 261.083 338.372 260.67 338.239C260.257 338.106 259.82 338.064 259.389 338.116Z" fill="#4F66D0"/>
<path d="M444.727 346.579C442.532 346.587 440.428 347.46 438.873 349.009C437.317 350.559 436.435 352.659 436.419 354.854V365.903H441.954V354.854C441.946 354.488 442.012 354.124 442.149 353.784C442.285 353.443 442.489 353.134 442.748 352.875C443.008 352.616 443.317 352.412 443.657 352.276C443.997 352.139 444.361 352.073 444.727 352.081H461.3C461.665 352.074 462.028 352.142 462.366 352.279C462.704 352.416 463.011 352.621 463.268 352.88C463.526 353.139 463.728 353.448 463.862 353.787C463.997 354.126 464.061 354.489 464.051 354.854V365.903H469.576V354.854C469.566 352.663 468.691 350.563 467.141 349.013C465.591 347.463 463.492 346.589 461.3 346.579H444.727Z" fill="#6C7FD8"/>
<path d="M406.047 363.13C403.853 363.144 401.752 364.023 400.203 365.577C398.653 367.131 397.78 369.233 397.771 371.427V432.194C397.781 434.386 398.655 436.486 400.205 438.036C401.755 439.586 403.855 440.46 406.047 440.47H499.959C502.154 440.461 504.256 439.588 505.81 438.038C507.363 436.488 508.243 434.388 508.257 432.194V371.427C508.243 369.231 507.365 367.128 505.812 365.575C504.259 364.021 502.156 363.143 499.959 363.13H406.047Z" fill="#F73C4F"/>
<path d="M417.095 363.13V440.47H428.144V363.13H417.095ZM477.851 363.13V440.47H488.911V363.13H477.851Z" fill="#6C7FD8"/>
<path d="M441.954 393.513C441.591 393.512 441.231 393.584 440.896 393.723C440.56 393.863 440.255 394.067 440 394.325C439.744 394.583 439.541 394.889 439.405 395.226C439.268 395.563 439.2 395.923 439.203 396.286V407.335C439.203 407.696 439.274 408.054 439.412 408.388C439.55 408.722 439.752 409.026 440.008 409.281C440.264 409.537 440.567 409.739 440.901 409.877C441.235 410.016 441.593 410.086 441.954 410.086H464.051C464.415 410.09 464.775 410.021 465.112 409.884C465.448 409.748 465.755 409.546 466.013 409.29C466.271 409.034 466.475 408.729 466.615 408.394C466.754 408.058 466.825 407.698 466.825 407.335V396.286C466.827 395.922 466.756 395.56 466.618 395.223C466.479 394.886 466.274 394.58 466.015 394.322C465.493 393.805 464.787 393.514 464.051 393.513H441.954Z" fill="#FFBA55"/>
</svg>
