<svg width="33" height="32" viewBox="0 0 33 32" fill="none" xmlns="http://www.w3.org/2000/svg">
<path d="M28.4629 11.0344L20.5285 9.88129L16.9817 2.69066C16.8848 2.49379 16.7254 2.33441 16.5285 2.23754C16.0348 1.99379 15.4348 2.19691 15.1879 2.69066L11.641 9.88129L3.70665 11.0344C3.4879 11.0657 3.2879 11.1688 3.13478 11.325C2.94966 11.5153 2.84765 11.7713 2.85116 12.0367C2.85468 12.3022 2.96343 12.5554 3.15353 12.7407L8.89415 18.3375L7.5379 26.2407C7.5061 26.4245 7.52644 26.6136 7.59663 26.7865C7.66681 26.9593 7.78403 27.1091 7.93499 27.2187C8.08595 27.3284 8.26461 27.3935 8.45071 27.4068C8.63681 27.42 8.82291 27.3809 8.9879 27.2938L16.0848 23.5625L23.1817 27.2938C23.3754 27.3969 23.6004 27.4313 23.816 27.3938C24.3598 27.3 24.7254 26.7844 24.6317 26.2407L23.2754 18.3375L29.016 12.7407C29.1723 12.5875 29.2754 12.3875 29.3067 12.1688C29.391 11.6219 29.0098 11.1157 28.4629 11.0344V11.0344Z" fill="#FFA413"/>
</svg>
