<svg width="29" height="24" viewBox="0 0 29 24" fill="none" xmlns="http://www.w3.org/2000/svg">
<path d="M13 1C10.879 1.0027 8.84566 1.91416 7.34592 3.53442C5.84617 5.15468 5.00251 7.35146 5.00001 9.64286C4.99747 11.5154 5.56363 13.3371 6.61164 14.8286C6.61164 14.8286 6.82982 15.1389 6.86546 15.1837L13 23L19.1374 15.1798C19.1694 15.1381 19.3884 14.8286 19.3884 14.8286L19.3891 14.8262C20.4366 13.3354 21.0025 11.5145 21 9.64286C20.9975 7.35146 20.1538 5.15468 18.6541 3.53442C17.1543 1.91416 15.121 1.0027 13 1V1ZM13 12.7857C12.4246 12.7857 11.8622 12.6014 11.3838 12.256C10.9054 11.9107 10.5325 11.4199 10.3124 10.8456C10.0922 10.2713 10.0346 9.63937 10.1468 9.02972C10.2591 8.42006 10.5361 7.86006 10.943 7.42052C11.3498 6.98098 11.8682 6.68166 12.4325 6.56039C12.9968 6.43912 13.5817 6.50136 14.1133 6.73924C14.6448 6.97711 15.0992 7.37994 15.4188 7.89678C15.7385 8.41362 15.9091 9.02126 15.9091 9.64286C15.9081 10.4761 15.6013 11.2749 15.056 11.864C14.5106 12.4532 13.7712 12.7847 13 12.7857V12.7857Z" fill="#1F4590"/>
</svg>
