<svg width="49" height="49" viewBox="0 0 49 49" fill="none" xmlns="http://www.w3.org/2000/svg">
<path d="M24.5273 4.05405C35.5505 4.05405 44.5273 13.0266 44.5273 24.0656C44.5273 35.0816 35.5505 44.0541 24.5273 44.0541C13.5042 44.0541 4.52734 35.0816 4.52734 24.0656C4.52734 13.0266 13.5042 4.05405 24.5273 4.05405ZM22.2494 16.1139C21.8246 16.1139 21.4192 16.2103 21.0331 16.4033C20.5505 16.6734 20.1644 17.098 19.9521 17.5996C19.8169 17.947 19.6046 18.9889 19.6046 19.0082C19.3922 20.1467 19.2764 21.9991 19.2764 24.0444C19.2764 25.9952 19.3922 27.7685 19.566 28.9262C19.5853 28.9455 19.7976 30.2383 20.0293 30.6821C20.454 31.4925 21.2841 31.9942 22.1721 31.9942H22.2494C22.8285 31.9749 24.0447 31.4733 24.0447 31.454C26.091 30.6049 30.1258 27.9614 31.7474 26.2055L31.8633 26.0898C32.0756 25.8775 32.3459 25.5495 32.4038 25.4723C32.7127 25.0671 32.8671 24.5654 32.8671 24.0656C32.8671 23.5041 32.6934 22.9831 32.3652 22.5586C32.288 22.4815 31.9984 22.1534 31.7281 21.8833C30.1451 20.1853 26.0138 17.4067 23.8517 16.5577C23.5235 16.4245 22.6934 16.1332 22.2494 16.1139Z" fill="white"/>
</svg>
