<svg width="41" height="41" viewBox="0 0 41 41" fill="none" xmlns="http://www.w3.org/2000/svg">
<circle cx="21" cy="20" r="15" fill="#2194FF"/>
<path d="M20.5273 0.0540543C31.5505 0.0540543 40.5273 9.02656 40.5273 20.0656C40.5273 31.0816 31.5505 40.0541 20.5273 40.0541C9.50418 40.0541 0.527344 31.0816 0.527344 20.0656C0.527344 9.02656 9.50418 0.0540543 20.5273 0.0540543ZM18.2494 12.1139C17.8246 12.1139 17.4192 12.2104 17.0331 12.4033C16.5505 12.6734 16.1644 13.098 15.9521 13.5996C15.8169 13.947 15.6046 14.9889 15.6046 15.0082C15.3922 16.1467 15.2764 17.9991 15.2764 20.0444C15.2764 21.9952 15.3922 23.7685 15.566 24.9262C15.5853 24.9455 15.7976 26.2383 16.0293 26.6821C16.454 27.4925 17.2841 27.9942 18.1721 27.9942H18.2494C18.8285 27.9749 20.0447 27.4733 20.0447 27.454C22.091 26.6049 26.1258 23.9614 27.7474 22.2055L27.8633 22.0898C28.0756 21.8775 28.3459 21.5495 28.4038 21.4723C28.7127 21.0671 28.8671 20.5654 28.8671 20.0656C28.8671 19.5041 28.6934 18.9831 28.3652 18.5586C28.288 18.4815 27.9984 18.1534 27.7281 17.8833C26.1451 16.1853 22.0138 13.4067 19.8517 12.5577C19.5235 12.4245 18.6934 12.1332 18.2494 12.1139Z" fill="white"/>
</svg>
