<svg width="700" height="550" viewBox="0 0 700 550" fill="none" xmlns="http://www.w3.org/2000/svg">
<path d="M235.601 148.552C181.965 190.42 149.971 366.664 250.542 367.916C303.48 368.575 397.638 403.366 459.716 435.662C520.078 467.065 506.663 295.582 444.775 216.299C382.888 137.016 289.237 106.685 235.601 148.552Z" fill="#EFEDEF"/>
<path d="M486.328 453.091C481.774 453.091 476.773 451.702 471.412 448.912L471.873 448.025C484.312 454.497 494.309 453.343 501.58 444.601C514.863 428.633 517.67 388.544 508.903 339.981C499.698 288.988 479.495 239.702 454.858 208.141C387.247 121.525 284.629 88.2243 226.103 133.912L225.487 133.123C284.447 87.0974 387.696 120.475 455.647 207.526C480.378 239.209 500.655 288.658 509.888 339.803C518.705 388.649 515.816 429.05 502.35 445.24C498.003 450.465 492.588 453.091 486.328 453.091Z" fill="#EFEDEF"/>
<path d="M349.633 96.6396H339.751C336.78 96.6396 334.372 99.0479 334.372 102.019V111.9C334.372 114.871 336.78 117.279 339.751 117.279H349.633C352.603 117.279 355.012 114.871 355.012 111.9V102.019C355.012 99.0479 352.603 96.6396 349.633 96.6396Z" fill="#DC8758"/>
<path d="M288.641 453.091H280.282L314.162 300.804L331.23 305.399L288.641 453.091Z" fill="#DC8758"/>
<path d="M401.763 453.091H410.122L376.242 300.804L359.175 305.399L401.763 453.091Z" fill="#DC8758"/>
<path d="M474.664 108.824H215.645C213.698 108.824 212.121 110.402 212.121 112.348V318.197C212.121 320.144 213.698 321.722 215.645 321.722H474.664C476.61 321.722 478.188 320.144 478.188 318.197V112.348C478.188 110.402 476.61 108.824 474.664 108.824Z" fill="#FFE3CB"/>
<path d="M390.525 312.685H299.783C298.249 312.685 297.005 313.929 297.005 315.463V323.052C297.005 324.587 298.249 325.831 299.783 325.831H390.525C392.06 325.831 393.304 324.587 393.304 323.052V315.463C393.304 313.929 392.06 312.685 390.525 312.685Z" fill="#DC8758"/>
<path d="M600 452.09H99.9995V454.09H600V452.09Z" fill="#935B50"/>
<path d="M146.145 429.517L144.964 441.3L165.426 451.297H134.005V429.517H146.145Z" fill="#F9977A"/>
<path d="M179.866 429.517L178.686 441.3L199.147 451.297H167.727V429.517H179.866Z" fill="#F9977A"/>
<path d="M147.791 435.564H133.951C133.58 435.564 133.213 435.491 132.871 435.349C132.528 435.207 132.217 434.999 131.955 434.737C131.693 434.475 131.486 434.164 131.344 433.822C131.202 433.48 131.129 433.113 131.129 432.742V383.528C131.129 373.911 132.211 364.324 134.353 354.949C134.737 353.268 134.891 351.543 134.808 349.821C134.205 337.148 131.952 281.571 138.27 271.462L178.686 268.478L150.572 433.217C150.46 433.873 150.119 434.469 149.61 434.899C149.101 435.328 148.457 435.564 147.791 435.564Z" fill="#C67A56"/>
<path d="M191.845 266.383C191.845 266.383 193.97 300.78 193.97 308.867V356.586C193.97 358.551 193.873 360.512 193.68 362.47L186.604 434.228C186.535 434.925 186.209 435.572 185.69 436.042C185.171 436.513 184.496 436.773 183.796 436.773H167.488C167.1 436.773 166.716 436.693 166.361 436.538C166.005 436.383 165.686 436.157 165.421 435.873C165.157 435.589 164.955 435.253 164.826 434.888C164.697 434.522 164.645 434.133 164.674 433.747L169.08 373.163C169.485 367.596 169.11 362 167.968 356.536L150.171 271.462L191.845 266.383Z" fill="#C67A56"/>
<path d="M223.165 212.089C223.165 212.089 223.313 208.207 229.282 202.062C235.251 195.916 240.604 191.715 237.496 196.894L235.062 200.801C235.062 200.801 241.485 198.311 245.181 196.492C246.154 195.994 247.261 195.822 248.339 196C249.417 196.179 250.409 196.699 251.169 197.483C252.562 198.986 252.52 200.627 248.679 203.541C245.136 206.361 241.218 208.676 237.039 210.42C236.439 210.65 235.933 211.073 235.599 211.623L231.306 215.117L223.165 212.089Z" fill="#F9977A"/>
<path d="M231.306 202.615C231.822 202.132 232.409 201.731 233.047 201.427C233.361 201.271 233.687 201.139 234.021 201.031C234.358 200.914 234.708 200.837 235.063 200.801C234.507 201.227 233.909 201.594 233.278 201.898C232.652 202.215 231.99 202.456 231.306 202.615Z" fill="#DD765E"/>
<path d="M240.178 201.426C241.634 200.508 243.122 199.681 244.59 198.819C246.065 197.966 247.521 197.113 248.931 196.13C248.356 196.775 247.713 197.354 247.012 197.859C246.321 198.373 245.6 198.845 244.853 199.273C244.107 199.7 243.349 200.105 242.567 200.46C241.79 200.829 240.992 201.151 240.178 201.426Z" fill="#DD765E"/>
<path d="M241.771 203.404C243.434 202.52 245.101 201.689 246.715 200.766C247.528 200.317 248.313 199.825 249.079 199.308C249.86 198.803 250.564 198.189 251.169 197.483C250.715 198.323 250.085 199.055 249.323 199.629C248.589 200.229 247.803 200.762 246.974 201.222C246.152 201.686 245.304 202.101 244.434 202.465C243.569 202.837 242.679 203.151 241.771 203.404Z" fill="#DD765E"/>
<path d="M243.695 204.887L247.81 202.656C248.491 202.284 249.153 201.883 249.824 201.492C250.489 201.089 251.133 200.658 251.793 200.224C250.723 201.391 249.462 202.368 248.065 203.115C247.376 203.497 246.665 203.839 245.935 204.138C245.209 204.445 244.46 204.696 243.695 204.887Z" fill="#DD765E"/>
<path d="M176.593 192.376C176.593 192.376 179.827 193.822 182.334 195.107C185.808 196.888 191.204 203.148 197.518 218.783L201.714 229.173C201.714 229.173 214.31 214.47 225.207 205.145L235.962 213.872L211.069 242.546C209.458 244.849 207.32 246.733 204.832 248.039C199.148 250.944 193.344 249.986 190.158 244.079C185.174 234.839 179.249 220.771 178.682 216.851L176.593 192.376Z" fill="#FFBA55"/>
<path d="M201.674 229.359C202.137 230.047 202.493 230.801 202.731 231.595C202.987 232.389 203.14 233.212 203.186 234.045C203.242 234.895 203.141 235.749 202.889 236.562C202.644 237.384 202.143 238.107 201.459 238.625C201.798 237.918 202.024 237.162 202.129 236.385C202.222 235.626 202.241 234.859 202.188 234.096C202.124 232.548 201.846 231.002 201.674 229.359Z" fill="#E6952A"/>
<path d="M153.333 278.129C153.333 278.129 153.333 295.137 134.567 290.686L135.605 275.377L153.333 278.129Z" fill="#A3862B"/>
<path d="M202.301 452.369V452.297C202.301 451.746 202.148 451.206 201.859 450.736C201.57 450.267 201.157 449.888 200.665 449.64L179.426 438.936C179.219 438.831 178.981 438.803 178.754 438.856C178.528 438.909 178.327 439.04 178.187 439.226L174.036 444.751C173.889 444.947 173.674 445.082 173.433 445.129C173.192 445.176 172.943 445.132 172.733 445.006L167.86 442.082C167.71 441.992 167.538 441.943 167.362 441.941C167.187 441.939 167.014 441.983 166.861 442.07C166.708 442.156 166.581 442.281 166.493 442.433C166.404 442.585 166.358 442.757 166.358 442.933V452.369C166.358 452.499 166.384 452.628 166.433 452.748C166.483 452.868 166.556 452.978 166.648 453.07C166.741 453.162 166.85 453.235 166.97 453.285C167.091 453.335 167.219 453.36 167.35 453.36H201.309C201.44 453.36 201.569 453.335 201.689 453.285C201.809 453.235 201.919 453.162 202.011 453.07C202.103 452.978 202.176 452.868 202.226 452.748C202.276 452.628 202.301 452.499 202.301 452.369Z" fill="#5D1115"/>
<path d="M168.579 452.369V452.297C168.579 451.746 168.426 451.206 168.138 450.736C167.849 450.267 167.435 449.888 166.943 449.64L145.705 438.936C145.497 438.831 145.259 438.803 145.033 438.856C144.806 438.909 144.605 439.04 144.465 439.226L140.314 444.751C140.167 444.947 139.952 445.082 139.711 445.129C139.471 445.176 139.221 445.132 139.011 445.006L134.138 442.082C133.988 441.992 133.816 441.943 133.641 441.941C133.465 441.939 133.292 441.983 133.139 442.07C132.987 442.156 132.86 442.282 132.771 442.433C132.683 442.585 132.636 442.757 132.636 442.933V452.369C132.636 452.499 132.662 452.628 132.712 452.748C132.762 452.868 132.835 452.978 132.927 453.07C133.019 453.162 133.128 453.235 133.248 453.285C133.369 453.335 133.498 453.36 133.628 453.36H167.588C167.718 453.36 167.847 453.335 167.967 453.285C168.088 453.235 168.197 453.162 168.289 453.07C168.381 452.978 168.454 452.868 168.504 452.748C168.554 452.628 168.579 452.499 168.579 452.369Z" fill="#5D1115"/>
<path d="M163.742 152.262C166.611 151.825 169.543 152.076 172.295 152.995C173.585 153.452 178.304 155.125 180.604 159.593C181.478 161.289 181.675 163.33 182.07 167.413C182.317 169.962 183.299 171.789 183.298 174.898C183.247 177.418 182.833 179.917 182.07 182.319C180.927 186.079 181.663 188.215 181.093 188.917C178.795 191.749 173.867 189.131 173.762 192.827C173.697 195.109 175.147 196.554 173.242 198.601C170.88 201.139 161.908 200.178 158.611 198.448C158.161 198.212 151.567 194.664 152.013 190.628C152.25 188.472 154.268 188.249 155.678 185.007C156.581 182.76 156.835 180.305 156.411 177.921C155.776 173.202 153.398 172.627 151.524 166.924C151.015 165.492 150.883 163.953 151.14 162.456C151.396 160.958 152.034 159.552 152.99 158.371C155.747 155.137 159.553 152.974 163.742 152.262Z" fill="#F9977A"/>
<path d="M182.089 172.202C182.618 172.202 183.047 171.669 183.047 171.011C183.047 170.353 182.618 169.82 182.089 169.82C181.56 169.82 181.131 170.353 181.131 171.011C181.131 171.669 181.56 172.202 182.089 172.202Z" fill="#0A0709"/>
<path d="M172.048 172.606C172.577 172.606 173.006 172.072 173.006 171.414C173.006 170.756 172.577 170.223 172.048 170.223C171.519 170.223 171.09 170.756 171.09 171.414C171.09 172.072 171.519 172.606 172.048 172.606Z" fill="#0A0709"/>
<path d="M174.117 166.857C174.245 166.861 174.368 166.905 174.468 166.983C174.569 167.062 174.643 167.17 174.678 167.292C174.714 167.415 174.71 167.545 174.667 167.665C174.624 167.785 174.544 167.889 174.438 167.961C173.392 168.693 172.151 169.098 170.875 169.122C169.598 169.146 168.343 168.789 167.27 168.096C167.14 168.002 167.053 167.861 167.027 167.703C167.002 167.545 167.04 167.383 167.133 167.253C167.226 167.123 167.367 167.036 167.525 167.009C167.683 166.983 167.845 167.021 167.975 167.113C168.842 167.674 169.858 167.96 170.89 167.933C171.922 167.906 172.921 167.567 173.757 166.962C173.863 166.889 173.989 166.852 174.117 166.857Z" fill="#0A0709"/>
<path d="M184.066 166.69C184.194 166.694 184.317 166.739 184.418 166.817C184.518 166.895 184.592 167.003 184.627 167.126C184.663 167.248 184.659 167.379 184.616 167.499C184.573 167.619 184.493 167.722 184.387 167.794C183.341 168.527 182.101 168.931 180.824 168.955C179.547 168.979 178.292 168.622 177.219 167.929C177.089 167.836 177.002 167.694 176.976 167.536C176.95 167.378 176.988 167.216 177.082 167.086C177.175 166.956 177.316 166.868 177.474 166.842C177.632 166.816 177.794 166.854 177.925 166.947C178.791 167.508 179.807 167.794 180.839 167.766C181.871 167.739 182.871 167.401 183.706 166.795C183.812 166.722 183.938 166.686 184.066 166.69Z" fill="#0A0709"/>
<path d="M175.439 276.175C176.32 276.175 177.035 275.46 177.035 274.579C177.035 273.697 176.32 272.982 175.439 272.982C174.557 272.982 173.843 273.697 173.843 274.579C173.843 275.46 174.557 276.175 175.439 276.175Z" fill="#5D1115"/>
<path d="M177.71 169.527C177.615 170.519 177.796 171.518 178.233 172.413C178.627 173.321 179.132 174.178 179.736 174.962L180.22 175.538C180.422 175.758 180.533 176.047 180.53 176.345C180.502 176.622 180.416 176.889 180.275 177.129C180.135 177.368 179.944 177.575 179.716 177.733C179.279 178.016 178.784 178.197 178.268 178.262C177.752 178.328 177.227 178.276 176.734 178.111C177.216 178.197 177.71 178.186 178.188 178.08C178.666 177.974 179.119 177.775 179.519 177.494C179.878 177.21 180.11 176.796 180.163 176.341C180.194 175.936 179.737 175.628 179.423 175.216C178.81 174.396 178.314 173.495 177.95 172.537C177.544 171.587 177.46 170.53 177.71 169.527Z" fill="#DD765E"/>
<path d="M160.013 169.931C159.687 170.038 159.378 170.19 159.095 170.384C158.816 170.568 158.559 170.782 158.329 171.024C157.852 171.519 157.411 172.047 157.009 172.605C157.091 172.256 157.221 171.919 157.395 171.605C157.576 171.29 157.794 170.999 158.046 170.737C158.295 170.468 158.6 170.255 158.94 170.116C159.28 169.977 159.646 169.913 160.013 169.931Z" fill="#DD765E"/>
<path d="M159.234 174.898C159.338 174.164 159.33 173.418 159.21 172.686C159.16 172.325 159.071 171.97 158.943 171.629C158.833 171.276 158.663 170.947 158.511 170.589C159.089 171.127 159.474 171.841 159.605 172.621C159.735 173.4 159.605 174.201 159.234 174.898Z" fill="#DD765E"/>
<path d="M192.286 248.292C191.912 244.735 191.761 241.191 191.606 237.647C191.47 234.1 191.343 230.57 191.267 226.996C192.061 230.481 192.508 234.035 192.604 237.607C192.766 241.171 192.66 244.743 192.286 248.292Z" fill="#E6952A"/>
<path d="M172.745 182.322C172.745 182.322 176.518 185.841 179.892 182.322Z" fill="#0A0709"/>
<path d="M168.956 171.268C169.668 170.602 170.571 170.175 171.538 170.049C172.023 169.986 172.514 170.001 172.994 170.096C173.469 170.189 173.922 170.368 174.331 170.626C173.878 170.516 173.417 170.442 172.952 170.403C172.498 170.36 172.041 170.375 171.592 170.448C170.674 170.577 169.784 170.854 168.956 171.268Z" fill="#1E1D22"/>
<path d="M178.824 170.865C179.536 170.199 180.439 169.772 181.406 169.646C181.891 169.583 182.383 169.598 182.862 169.693C183.337 169.785 183.79 169.965 184.199 170.223C183.746 170.113 183.285 170.039 182.82 170C182.366 169.957 181.909 169.972 181.46 170.045C180.543 170.174 179.653 170.451 178.824 170.865Z" fill="#1E1D22"/>
<path d="M192.369 271.21C188.626 274.121 183.999 275.639 179.438 276.773C174.826 277.837 170.123 278.453 165.394 278.613C163.033 278.765 160.671 278.641 158.312 278.646C155.955 278.553 153.598 278.423 151.249 278.232C148.907 277.951 146.563 277.71 144.229 277.395C141.908 276.987 139.584 276.613 137.273 276.175C139.62 276.389 141.953 276.666 144.288 276.909C146.626 277.124 148.969 277.278 151.306 277.465C153.651 277.534 155.99 277.691 158.332 277.736C160.673 277.701 163.018 277.792 165.352 277.615C170.029 277.494 174.686 276.962 179.27 276.025C181.563 275.571 183.823 274.962 186.034 274.202C188.267 273.486 190.397 272.48 192.369 271.21Z" fill="#5D1115"/>
<path d="M177.198 276.861C176.435 282.589 175.563 288.3 174.675 294.007C173.789 299.715 172.815 305.408 171.889 311.109C170.883 316.797 169.92 322.491 168.874 328.172L167.286 336.69C166.721 339.523 166.19 342.362 165.594 345.19C165.966 342.324 166.402 339.469 166.803 336.608L168.116 328.043C169.005 322.336 169.976 316.643 170.904 310.942C171.912 305.255 172.872 299.559 173.92 293.879C174.966 288.198 176.028 282.52 177.198 276.861Z" fill="#5D1115"/>
<path d="M185.273 269.79C185.623 270.818 185.792 271.898 185.773 272.983C185.794 274.068 185.625 275.148 185.273 276.175C184.922 275.148 184.753 274.068 184.774 272.983C184.755 271.898 184.924 270.818 185.273 269.79Z" fill="#5D1115"/>
<path d="M160.879 272.393C161.087 273.621 161.108 274.874 160.942 276.108C160.817 277.348 160.504 278.561 160.013 279.706C159.803 278.478 159.781 277.225 159.95 275.991C160.076 274.751 160.39 273.538 160.879 272.393Z" fill="#5D1115"/>
<path d="M173.499 277.452C173.404 279.788 173.182 282.117 172.834 284.429C172.497 286.736 172.086 289.03 171.58 291.309L171.441 290.962C172.44 291.808 173.414 292.686 174.354 293.61C173.207 292.961 172.094 292.266 171.006 291.538L170.841 291.428L170.867 291.191C171.119 288.871 171.467 286.566 171.888 284.273C172.301 281.972 172.839 279.695 173.499 277.452Z" fill="#5D1115"/>
<path d="M137.273 314.292C137.687 315.926 138.168 317.527 138.654 319.116C139.14 320.698 139.706 322.255 140.349 323.781C140.974 325.302 141.73 326.766 142.607 328.156C143.502 329.551 144.591 330.811 145.841 331.899C144.327 331.097 143.006 329.974 141.971 328.609C140.936 327.244 140.082 325.752 139.428 324.17C138.772 322.602 138.261 320.977 137.903 319.316C137.526 317.666 137.315 315.983 137.273 314.292Z" fill="#5D1115"/>
<path d="M137.273 325.901C138.558 327.969 139.803 329.986 141.194 331.905C141.871 332.878 142.622 333.788 143.379 334.7C144.146 335.607 144.982 336.443 145.841 337.317C143.652 336.182 141.777 334.524 140.384 332.49C139.673 331.494 139.047 330.439 138.513 329.338C137.97 328.244 137.554 327.09 137.273 325.901Z" fill="#5D1115"/>
<path d="M173.791 372.193C174.204 373.827 174.685 375.428 175.171 377.016C175.657 378.599 176.223 380.156 176.866 381.682C177.491 383.203 178.247 384.667 179.124 386.057C180.019 387.452 181.108 388.712 182.358 389.8C180.844 388.998 179.523 387.875 178.488 386.51C177.453 385.145 176.599 383.653 175.946 382.071C175.289 380.503 174.778 378.878 174.42 377.217C174.043 375.567 173.832 373.884 173.791 372.193Z" fill="#5D1115"/>
<path d="M173.791 383.802C175.076 385.87 176.32 387.887 177.711 389.806C178.388 390.779 179.139 391.689 179.896 392.601C180.663 393.508 181.499 394.344 182.358 395.218C180.169 394.083 178.294 392.425 176.901 390.391C176.19 389.395 175.564 388.34 175.03 387.239C174.487 386.145 174.071 384.991 173.791 383.802Z" fill="#5D1115"/>
<path d="M156.68 291.25C157.299 293.178 157.58 295.198 157.509 297.222C157.535 299.351 156.761 301.412 155.338 302.997C154.548 303.75 153.562 304.265 152.492 304.482C151.464 304.68 150.409 304.702 149.373 304.546C147.373 304.219 145.444 303.549 143.673 302.564C145.551 303.172 147.488 303.577 149.453 303.77C151.356 303.886 153.352 303.589 154.643 302.279C155.896 300.856 156.632 299.053 156.734 297.16C156.931 295.194 156.913 293.212 156.68 291.25Z" fill="#5D1115"/>
<path d="M172.234 193.137C172.234 193.137 169.961 204.642 153.833 187.781L138.271 197.409C134.748 199.649 131.923 202.831 130.115 206.593C123.964 219.609 120.365 233.684 119.511 248.055C119.511 248.055 117.312 262.538 138.817 291.097C138.817 291.097 150.058 293.264 152.746 281.29L145.841 271.759C145.841 271.759 182.315 275.18 191.845 266.383C191.845 266.383 196.834 204.032 175.717 191.605L172.234 193.137Z" fill="#FFBA55"/>
<path d="M145.17 219.464C144.988 222.206 144.775 224.946 144.531 227.681C144.274 230.416 144.051 233.154 143.766 235.885L142.905 244.077C142.633 246.81 142.271 249.532 141.958 252.26L141.96 252.178C142.078 253.83 142.262 255.496 142.48 257.148C142.68 258.805 142.916 260.459 143.214 262.101C143.761 265.401 144.641 268.637 145.841 271.759C144.356 268.734 143.263 265.53 142.59 262.228C141.848 258.938 141.333 255.602 141.049 252.242L141.046 252.204L141.051 252.159C141.349 249.429 141.598 246.694 141.937 243.969L142.909 235.789C143.235 233.062 143.623 230.343 143.976 227.619C144.346 224.898 144.744 222.179 145.17 219.464Z" fill="#E6952A"/>
<path d="M149.014 222.152C148.498 223.469 147.81 224.711 146.966 225.847C146.157 227.007 145.196 228.053 144.107 228.957C144.621 227.639 145.31 226.397 146.155 225.262C146.966 224.103 147.927 223.057 149.014 222.152Z" fill="#E6952A"/>
<path d="M141.505 252.21C141.086 252.572 140.599 252.849 140.073 253.024C139.553 253.209 139.009 253.319 138.457 253.351C137.894 253.374 137.331 253.302 136.792 253.137C136.248 252.966 135.764 252.644 135.396 252.21C135.959 252.288 136.446 252.342 136.939 252.371C137.434 252.375 137.918 252.38 138.411 252.353C139.402 252.313 140.39 252.198 141.505 252.21Z" fill="#E6952A"/>
<path d="M168.775 196.774C171.122 202.657 173.121 208.672 174.764 214.789C176.438 220.9 177.748 227.107 178.823 233.356C179.803 239.624 180.392 245.947 180.589 252.288C180.707 258.629 180.204 264.967 179.086 271.21C179.344 268.052 179.824 264.93 179.814 261.766C180.021 258.617 179.874 255.461 179.82 252.312C179.508 246.014 178.846 239.739 177.837 233.514C176.85 227.285 175.531 221.111 174.023 214.982C173.272 211.916 172.454 208.867 171.569 205.834C170.726 202.789 169.771 199.776 168.775 196.774Z" fill="#E6952A"/>
<path d="M175.717 191.605C176.262 193.231 176.706 194.889 177.048 196.569C177.227 197.414 177.354 198.269 177.429 199.129C177.526 200.009 177.501 200.899 177.354 201.773C177.28 202.262 177.066 202.72 176.737 203.09C176.548 203.287 176.312 203.432 176.052 203.512C175.791 203.593 175.515 203.607 175.247 203.552C174.344 203.348 173.503 202.93 172.795 202.334C171.443 201.243 170.185 200.041 169.034 198.739L169.85 198.442C169.803 199.739 169.483 201.011 168.912 202.175C168.618 202.802 168.169 203.344 167.606 203.747C167.043 204.151 166.387 204.404 165.699 204.482C164.385 204.524 163.085 204.198 161.945 203.541C160.841 202.958 159.799 202.264 158.835 201.469C156.954 199.886 155.198 198.159 153.583 196.305C151.959 194.474 150.465 192.536 149.014 190.575C152.15 194.286 155.612 197.708 159.36 200.799C160.289 201.544 161.292 202.192 162.353 202.734C163.342 203.291 164.465 203.566 165.6 203.529C166.127 203.456 166.627 203.251 167.053 202.933C167.48 202.615 167.819 202.195 168.039 201.711C168.556 200.684 168.854 199.561 168.916 198.413L168.997 197.295L169.732 198.116C170.827 199.392 172.027 200.574 173.319 201.651C173.916 202.163 174.612 202.547 175.364 202.778C176.062 202.976 176.524 202.42 176.702 201.621C176.951 199.967 176.931 198.284 176.645 196.636C176.427 194.949 176.089 193.274 175.717 191.605Z" fill="#E6952A"/>
<path d="M172.815 218.363C173.379 218.363 173.836 217.906 173.836 217.342C173.836 216.778 173.379 216.321 172.815 216.321C172.251 216.321 171.793 216.778 171.793 217.342C171.793 217.906 172.251 218.363 172.815 218.363Z" fill="#5D1115"/>
<path d="M169.751 206.506C170.315 206.506 170.772 206.048 170.772 205.484C170.772 204.92 170.315 204.463 169.751 204.463C169.187 204.463 168.729 204.92 168.729 205.484C168.729 206.048 169.187 206.506 169.751 206.506Z" fill="#5D1115"/>
<path d="M175.36 232.266C175.924 232.266 176.381 231.808 176.381 231.244C176.381 230.68 175.924 230.223 175.36 230.223C174.796 230.223 174.339 230.68 174.339 231.244C174.339 231.808 174.796 232.266 175.36 232.266Z" fill="#5D1115"/>
<path d="M177.451 246.936C178.016 246.936 178.473 246.479 178.473 245.915C178.473 245.351 178.016 244.894 177.451 244.894C176.887 244.894 176.43 245.351 176.43 245.915C176.43 246.479 176.887 246.936 177.451 246.936Z" fill="#5D1115"/>
<path d="M178.093 263.001C178.657 263.001 179.114 262.543 179.114 261.979C179.114 261.415 178.657 260.958 178.093 260.958C177.529 260.958 177.071 261.415 177.071 261.979C177.071 262.543 177.529 263.001 178.093 263.001Z" fill="#5D1115"/>
<path d="M183.281 182.581C183.308 182.121 183.222 181.662 183.029 181.243C182.837 180.824 182.544 180.46 182.177 180.181C181.625 179.762 180.927 179.297 180.248 178.882C179.272 178.275 178.172 177.892 177.029 177.762C175.887 177.631 174.729 177.756 173.64 178.126C171.818 178.772 170.04 179.541 168.321 180.426C168.038 180.568 167.73 180.652 167.414 180.674C167.098 180.696 166.781 180.656 166.481 180.555C166.181 180.453 165.904 180.294 165.666 180.085C165.428 179.876 165.234 179.622 165.095 179.338C165.095 179.338 163.508 172.487 163.798 170.526C164.203 167.793 164.406 166.426 164.078 165.314C163.555 163.534 164.422 163.302 165.538 161.388C166.585 159.593 169.83 161.046 170.64 160.747C172.912 159.907 172.828 158.95 174.365 158.854C175.94 158.756 177.097 158.34 178.115 159.357C179.153 160.395 181.058 163.153 181.528 162.674C182.518 161.356 183.126 159.789 183.285 158.148C183.297 156.529 182.914 154.933 182.169 153.496C181.796 152.666 180.407 149.577 177.515 148.752C175.849 148.277 175.53 149.08 171.927 149.293C168.189 149.514 168.073 148.679 166.116 149.235C163.95 149.851 164.032 150.891 160.33 152.913C159.102 153.562 157.84 154.144 156.55 154.656C151.902 156.624 151.294 156.31 150.225 157.343C147.92 159.57 148.297 163.399 148.387 164.324C148.644 166.929 149.661 167.712 151.873 171.884C155.376 178.493 155.966 182.455 157.273 182.311C158.045 182.225 159.909 180.289 159.894 179.125C159.874 177.599 158.774 177.118 157.48 174.912C156.576 173.371 155.277 171.159 156.024 169.153C156.477 167.94 156.981 168.272 158.238 168.388C159.943 168.547 160.782 170.922 161.465 172.665C161.958 173.926 162.171 175.28 162.089 176.632C161.908 179.648 161.913 184.834 163.756 187.397C167.623 192.773 174.387 192.648 174.387 192.648C181.86 192.714 183.08 185.521 183.281 182.581ZM178.448 185.693C177.724 186.068 176.917 186.251 176.103 186.225C175.289 186.199 174.495 185.965 173.796 185.546C173.504 185.371 171.638 184.204 171.827 182.531C172.014 180.858 174.091 180.144 174.32 180.074C175.286 179.808 176.309 179.844 177.253 180.177C178.446 180.487 180.535 181.032 180.814 182.432C181.086 183.778 179.519 185.14 178.448 185.693Z" fill="#0A0709"/>
<path d="M391.522 164.578C390.117 164.063 388.84 163.253 387.774 162.203C386.709 161.153 385.881 159.887 385.346 158.49C384.811 157.093 384.581 155.598 384.672 154.105C384.763 152.612 385.172 151.155 385.873 149.834C386.703 148.299 387.89 146.986 389.333 146.005C390.776 145.024 392.433 144.404 394.166 144.197C395.898 143.989 397.655 144.201 399.289 144.814C400.922 145.427 402.385 146.423 403.554 147.719L410.578 129.218L457.625 147.081C458.487 147.407 459.277 147.899 459.948 148.531C460.619 149.162 461.16 149.92 461.538 150.76C461.915 151.601 462.124 152.507 462.15 153.429C462.177 154.35 462.021 155.267 461.692 156.128L443.471 204.118L425.209 197.184C426.503 196.016 427.511 194.566 428.157 192.947C428.669 191.646 428.92 190.257 428.896 188.86C428.871 187.462 428.572 186.083 428.014 184.801C427.456 183.52 426.651 182.36 425.645 181.39C424.639 180.42 423.451 179.657 422.15 179.146C419.497 178.217 416.587 178.359 414.037 179.542C411.488 180.726 409.5 182.856 408.497 185.482C407.905 187.122 407.697 188.876 407.89 190.608L389.628 183.674L396.648 165.185C394.915 165.373 393.163 165.166 391.522 164.578Z" fill="#F73C4F"/>
<path d="M307.654 204.208C307.671 205.704 307.367 207.186 306.764 208.555C306.16 209.923 305.27 211.147 304.154 212.143C303.038 213.139 301.722 213.885 300.294 214.33C298.866 214.775 297.359 214.909 295.874 214.723C294.145 214.491 292.496 213.848 291.067 212.847C289.638 211.847 288.47 210.517 287.661 208.971C286.852 207.425 286.427 205.708 286.42 203.963C286.413 202.218 286.825 200.497 287.621 198.945H267.832V148.621C267.83 147.699 268.01 146.786 268.362 145.934C268.714 145.083 269.23 144.309 269.882 143.657C270.534 143.005 271.307 142.489 272.159 142.137C273.011 141.785 273.924 141.605 274.845 141.607H326.178V161.141C324.627 160.346 322.914 159.917 321.17 159.889C319.773 159.871 318.385 160.129 317.087 160.649C315.789 161.168 314.606 161.937 313.606 162.914C312.606 163.89 311.808 165.054 311.258 166.34C310.708 167.625 310.416 169.005 310.4 170.403C310.474 173.213 311.64 175.883 313.651 177.847C315.662 179.81 318.36 180.912 321.17 180.918C322.914 180.889 324.627 180.461 326.178 179.666V199.2H306.401C307.192 200.753 307.62 202.465 307.654 204.208Z" fill="#FFBA55"/>
<path d="M299.52 145.555C299.421 144.226 299.224 142.906 298.93 141.605H274.85C273.928 141.603 273.014 141.783 272.161 142.135C271.308 142.487 270.533 143.004 269.881 143.656C269.229 144.309 268.712 145.083 268.36 145.936C268.008 146.789 267.828 147.703 267.83 148.625V174.795C271.927 175.436 276.115 175.142 280.082 173.936C284.049 172.73 287.693 170.644 290.74 167.832C293.787 165.02 296.16 161.556 297.68 157.699C299.201 153.841 299.83 149.69 299.52 145.555Z" fill="#FFD69B"/>
<path d="M448.534 276.182C449.754 277.049 450.773 278.167 451.524 279.461C452.275 280.754 452.74 282.194 452.888 283.683C453.037 285.171 452.864 286.674 452.383 288.09C451.902 289.507 451.123 290.804 450.099 291.894C448.894 293.156 447.403 294.11 445.753 294.676C444.102 295.242 442.34 295.404 440.614 295.147C438.888 294.891 437.249 294.223 435.835 293.202C434.42 292.18 433.272 290.834 432.486 289.276L420.835 305.272L380.157 275.645C379.411 275.104 378.779 274.42 378.298 273.635C377.817 272.849 377.495 271.976 377.352 271.065C377.209 270.155 377.247 269.225 377.464 268.329C377.681 267.434 378.073 266.59 378.617 265.846L408.839 224.352L424.629 235.853C423.073 236.639 421.718 237.772 420.668 239.164C419.831 240.283 419.223 241.557 418.878 242.912C418.534 244.266 418.46 245.676 418.66 247.059C418.861 248.443 419.332 249.773 420.047 250.974C420.761 252.175 421.706 253.224 422.827 254.06C425.141 255.655 427.986 256.284 430.757 255.815C433.528 255.345 436.007 253.813 437.666 251.544C438.67 250.119 439.332 248.481 439.603 246.759L455.393 258.26L443.749 274.246C445.47 274.521 447.106 275.183 448.534 276.182Z" fill="#FFBA55"/>
<path d="M251.368 298.462C250.322 299.531 249.059 300.365 247.665 300.906C246.27 301.447 244.776 301.683 243.282 301.598C241.789 301.514 240.331 301.11 239.006 300.415C237.682 299.72 236.522 298.749 235.604 297.567C234.544 296.181 233.833 294.561 233.53 292.842C233.227 291.124 233.341 289.358 233.863 287.693C234.384 286.028 235.298 284.512 236.526 283.274C237.755 282.035 239.264 281.109 240.924 280.575L226.931 266.581L262.516 230.997C263.166 230.344 263.939 229.826 264.79 229.472C265.641 229.119 266.554 228.937 267.475 228.937C268.397 228.937 269.309 229.119 270.16 229.472C271.011 229.826 271.784 230.344 272.435 230.997L308.733 267.295L294.92 281.108C294.385 279.448 293.476 277.934 292.264 276.681C291.288 275.68 290.124 274.882 288.839 274.331C287.555 273.78 286.174 273.488 284.776 273.471C283.378 273.455 281.991 273.714 280.693 274.233C279.396 274.753 278.213 275.523 277.214 276.5C275.278 278.539 274.215 281.252 274.249 284.062C274.282 286.873 275.411 289.559 277.394 291.551C278.647 292.763 280.161 293.672 281.821 294.207L268.008 308.02L254.024 294.035C253.485 295.693 252.576 297.206 251.368 298.462Z" fill="#6C7FD8"/>
<path d="M352.888 265.327C351.714 265.307 350.595 264.83 349.767 263.997C348.939 263.164 348.469 262.042 348.456 260.868C348.458 259.988 348.722 259.129 349.212 258.399C349.703 257.67 350.399 257.102 351.213 256.768C352.026 256.433 352.92 256.348 353.782 256.522C354.644 256.696 355.435 257.122 356.055 257.746C356.675 258.369 357.097 259.163 357.266 260.026C357.435 260.889 357.344 261.783 357.005 262.594C356.666 263.406 356.094 264.099 355.361 264.585C354.628 265.071 353.768 265.329 352.888 265.327ZM352.888 259.637C352.646 259.642 352.411 259.719 352.212 259.857C352.014 259.996 351.86 260.19 351.771 260.415C351.682 260.64 351.661 260.886 351.712 261.123C351.762 261.36 351.881 261.577 352.054 261.746C352.227 261.916 352.447 262.03 352.684 262.076C352.922 262.121 353.168 262.095 353.392 262.001C353.615 261.908 353.805 261.75 353.94 261.548C354.074 261.347 354.145 261.11 354.145 260.868C354.148 260.703 354.117 260.54 354.055 260.387C353.992 260.235 353.899 260.097 353.782 259.982C353.664 259.867 353.524 259.777 353.371 259.718C353.217 259.658 353.053 259.631 352.888 259.637ZM352.368 251.916C351.994 251.916 351.624 251.842 351.279 251.699C350.934 251.556 350.62 251.347 350.356 251.082C350.092 250.818 349.883 250.505 349.74 250.159C349.597 249.814 349.523 249.444 349.523 249.071V235.66C349.523 235.286 349.597 234.916 349.74 234.571C349.883 234.226 350.092 233.912 350.356 233.648C350.62 233.384 350.934 233.174 351.279 233.031C351.624 232.888 351.994 232.815 352.368 232.815C354.461 232.817 356.534 232.406 358.468 231.606C360.402 230.806 362.16 229.633 363.641 228.153C365.121 226.674 366.296 224.917 367.097 222.984C367.899 221.05 368.311 218.977 368.311 216.884C368.311 214.791 367.899 212.719 367.097 210.785C366.296 208.851 365.121 207.095 363.641 205.615C362.16 204.136 360.402 202.962 358.468 202.163C356.534 201.363 354.461 200.952 352.368 200.954C348.16 201.009 344.14 202.705 341.164 205.681C338.188 208.656 336.492 212.676 336.437 216.884C336.371 217.545 336.451 218.212 336.67 218.839C337 219.517 337.048 220.299 336.803 221.012C336.557 221.726 336.038 222.312 335.36 222.643C334.682 222.974 333.9 223.022 333.187 222.776C332.474 222.53 331.887 222.012 331.556 221.333C330.933 219.937 330.656 218.411 330.748 216.884C330.823 211.174 333.125 205.718 337.163 201.68C341.202 197.641 346.657 195.339 352.368 195.264C357.856 195.265 363.138 197.353 367.144 201.104C371.15 204.855 373.58 209.988 373.942 215.464C374.304 220.94 372.57 226.349 369.092 230.594C365.614 234.839 360.653 237.604 355.213 238.327V249.071C355.213 249.444 355.139 249.814 354.996 250.159C354.853 250.505 354.644 250.818 354.379 251.082C354.115 251.347 353.802 251.556 353.457 251.699C353.111 251.842 352.741 251.916 352.368 251.916Z" fill="white"/>
<path d="M165.179 143.763C164.663 143.763 164.157 143.61 163.728 143.323C163.298 143.035 162.963 142.627 162.766 142.15C162.568 141.672 162.516 141.147 162.617 140.64C162.718 140.133 162.967 139.668 163.333 139.303C163.698 138.937 164.164 138.688 164.67 138.588C165.177 138.487 165.703 138.539 166.18 138.737C166.657 138.935 167.065 139.27 167.352 139.699C167.639 140.129 167.793 140.634 167.793 141.151C167.777 141.839 167.496 142.494 167.01 142.981C166.523 143.467 165.867 143.748 165.179 143.763ZM165.179 140.763C165.077 140.764 164.979 140.805 164.907 140.877C164.835 140.95 164.794 141.048 164.794 141.15C164.794 141.253 164.835 141.351 164.907 141.424C164.979 141.496 165.077 141.537 165.179 141.538C165.233 141.547 165.288 141.543 165.34 141.528C165.392 141.512 165.44 141.484 165.48 141.446C165.519 141.409 165.549 141.362 165.568 141.311C165.586 141.26 165.592 141.205 165.586 141.151C165.591 141.097 165.584 141.043 165.565 140.992C165.546 140.941 165.516 140.896 165.477 140.858C165.437 140.821 165.39 140.793 165.339 140.777C165.287 140.76 165.233 140.756 165.179 140.763ZM164.821 134.519C164.423 134.519 164.042 134.361 163.76 134.08C163.479 133.798 163.321 133.417 163.321 133.019V123.776C163.321 123.378 163.479 122.997 163.76 122.715C164.042 122.434 164.423 122.276 164.821 122.276C167.854 122.273 170.761 121.066 172.905 118.921C175.048 116.775 176.252 113.867 176.252 110.834C176.252 107.801 175.048 104.893 172.905 102.747C170.761 100.602 167.854 99.395 164.821 99.3921C161.799 99.4319 158.911 100.65 156.774 102.788C154.637 104.925 153.419 107.812 153.379 110.835C153.332 111.36 153.403 111.89 153.586 112.385C153.761 112.743 153.785 113.155 153.655 113.531C153.526 113.907 153.252 114.216 152.894 114.39C152.536 114.564 152.124 114.589 151.748 114.459C151.372 114.329 151.063 114.055 150.889 113.698C150.494 112.798 150.319 111.816 150.379 110.835C150.429 107.02 151.967 103.376 154.664 100.678C157.362 97.9802 161.006 96.4424 164.821 96.3921C168.521 96.3929 172.08 97.8137 174.764 100.362C177.447 102.91 179.05 106.39 179.243 110.086C179.435 113.781 178.202 117.409 175.798 120.222C173.393 123.035 170.001 124.818 166.321 125.203V133.019C166.321 133.417 166.163 133.798 165.881 134.08C165.6 134.361 165.219 134.519 164.821 134.519Z" fill="#F73C4F"/>
<path d="M299.52 145.555C299.421 144.226 299.224 142.906 298.93 141.605C297.937 137.145 295.848 133.003 292.853 129.552C289.858 126.101 286.05 123.45 281.774 121.839C277.498 120.228 272.888 119.707 268.361 120.323C263.833 120.939 259.53 122.673 255.84 125.368C252.15 128.063 249.189 131.635 247.225 135.761C245.261 139.886 244.355 144.436 244.589 149C244.824 153.563 246.19 157.996 248.567 161.899C250.943 165.802 254.254 169.052 258.2 171.355L254.13 178.475C253.371 178.286 252.57 178.356 251.855 178.672C251.139 178.989 250.55 179.536 250.18 180.225L233.6 211.025C233.381 211.432 233.244 211.878 233.198 212.338C233.152 212.798 233.197 213.262 233.331 213.705C233.465 214.147 233.685 214.558 233.978 214.915C234.271 215.273 234.632 215.568 235.04 215.785C235.297 215.93 235.573 216.037 235.86 216.105C236.618 216.291 237.416 216.22 238.129 215.903C238.842 215.587 239.43 215.042 239.8 214.355L256.37 183.555C256.708 182.927 256.847 182.211 256.768 181.502C256.689 180.793 256.397 180.125 255.93 179.585L260.06 172.345C261.804 173.202 263.634 173.869 265.52 174.335C266.28 174.515 267.05 174.675 267.83 174.795C271.927 175.436 276.115 175.142 280.082 173.936C284.049 172.73 287.692 170.644 290.74 167.832C293.787 165.02 296.16 161.556 297.68 157.699C299.2 153.841 299.83 149.69 299.52 145.555ZM290.26 163.265C288.211 165.661 285.705 167.626 282.89 169.046C280.075 170.466 277.005 171.312 273.86 171.535C269.121 171.893 264.381 170.837 260.242 168.5C256.103 166.163 252.751 162.651 250.608 158.408C248.466 154.166 247.63 149.383 248.207 144.665C248.784 139.947 250.748 135.506 253.849 131.904C256.951 128.303 261.051 125.702 265.632 124.432C270.212 123.162 275.066 123.278 279.58 124.768C284.093 126.257 288.064 129.052 290.989 132.798C293.913 136.545 295.661 141.075 296.01 145.815C296.256 148.96 295.874 152.122 294.887 155.117C293.899 158.113 292.327 160.883 290.26 163.265Z" fill="#F73C4F"/>
<path d="M240.061 205.954C240.061 205.954 236.915 205.362 236.91 207.551C236.928 208.07 237.104 208.571 237.414 208.988C237.725 209.404 238.155 209.716 238.647 209.881C241.734 211.008 249.483 213.451 248.462 209.117C248.462 209.117 253.357 208.23 250.856 205.367C250.856 205.367 253.973 204.14 251.963 201.764C251.963 201.764 254.492 200.713 252.06 198.168C249.629 195.623 239.804 195.339 242.296 198.529L243.195 199.186C242.819 199.214 242.457 199.339 242.145 199.549C241.832 199.759 241.578 200.046 241.409 200.382C241.24 200.719 241.161 201.093 241.179 201.469C241.198 201.845 241.313 202.21 241.514 202.529C241.514 202.529 238.216 203.124 240.061 205.954Z" fill="#F9977A"/>
<path d="M248.462 209.117C246.97 208.895 245.508 208.505 244.103 207.956C242.684 207.444 241.328 206.772 240.061 205.954C241.553 206.175 243.016 206.564 244.42 207.115C245.838 207.629 247.194 208.301 248.462 209.117Z" fill="#DD765E"/>
<path d="M250.856 205.367C249.226 205.203 247.617 204.872 246.055 204.378C244.481 203.921 242.959 203.302 241.515 202.529C243.145 202.69 244.754 203.021 246.316 203.518C247.889 203.976 249.41 204.595 250.856 205.367Z" fill="#DD765E"/>
<path d="M251.963 201.764C250.432 201.645 248.92 201.357 247.452 200.906C245.973 200.493 244.546 199.916 243.195 199.186C244.726 199.303 246.239 199.591 247.706 200.044C249.184 200.459 250.612 201.036 251.963 201.764Z" fill="#DD765E"/>
<path d="M514.893 165.106V453.091H580V165.106C580 164.696 579.919 164.29 579.762 163.911C579.605 163.531 579.375 163.187 579.085 162.897C578.795 162.607 578.45 162.377 578.071 162.22C577.692 162.063 577.286 161.982 576.876 161.982H518.017C517.606 161.982 517.2 162.063 516.821 162.22C516.442 162.377 516.098 162.607 515.808 162.897C515.518 163.187 515.287 163.531 515.13 163.911C514.973 164.29 514.893 164.696 514.893 165.106Z" fill="#935B50"/>
<path d="M573.283 214.374H521.609C519.884 214.374 518.485 215.773 518.485 217.498V254.269C518.485 255.995 519.884 257.393 521.609 257.393H573.283C575.008 257.393 576.407 255.995 576.407 254.269V217.498C576.407 215.773 575.008 214.374 573.283 214.374Z" fill="#E19974"/>
<path d="M573.283 166.668H521.609C519.884 166.668 518.485 168.067 518.485 169.792V206.563C518.485 208.289 519.884 209.688 521.609 209.688H573.283C575.008 209.688 576.407 208.289 576.407 206.563V169.792C576.407 168.067 575.008 166.668 573.283 166.668Z" fill="#E19974"/>
<path d="M572.728 204.228C572.949 204.387 573.126 204.6 573.242 204.846C573.359 205.092 573.412 205.363 573.397 205.635C573.37 206.154 573.152 206.644 572.785 207.012C572.418 207.38 571.928 207.599 571.409 207.626C571.137 207.642 570.865 207.589 570.619 207.472C570.372 207.355 570.16 207.177 570.001 206.955C570.247 206.605 570.473 206.242 570.68 205.868C570.784 205.661 570.916 205.47 571.074 205.301C571.246 205.145 571.438 205.013 571.644 204.908C572.018 204.702 572.38 204.475 572.728 204.228Z" fill="#D6694B"/>
<path d="M570.001 169.401C570.16 169.18 570.373 169.003 570.619 168.886C570.865 168.769 571.136 168.716 571.408 168.732C571.927 168.759 572.417 168.977 572.785 169.344C573.153 169.711 573.372 170.201 573.4 170.72C573.416 170.992 573.362 171.264 573.245 171.51C573.128 171.756 572.95 171.969 572.728 172.128C572.378 171.882 572.016 171.655 571.641 171.449C571.435 171.345 571.243 171.212 571.074 171.055C570.918 170.883 570.786 170.691 570.681 170.484C570.475 170.111 570.248 169.749 570.001 169.401Z" fill="#D6694B"/>
<path d="M522.165 172.128C521.944 171.968 521.767 171.756 521.65 171.51C521.534 171.264 521.481 170.993 521.496 170.721C521.523 170.202 521.741 169.712 522.108 169.344C522.475 168.976 522.965 168.757 523.484 168.729C523.756 168.713 524.028 168.766 524.274 168.884C524.52 169.001 524.733 169.179 524.892 169.401C524.646 169.751 524.42 170.113 524.213 170.488C524.109 170.694 523.976 170.886 523.819 171.055C523.647 171.211 523.455 171.343 523.249 171.448C522.875 171.654 522.513 171.881 522.165 172.128Z" fill="#D6694B"/>
<path d="M524.892 206.955C524.732 207.176 524.52 207.353 524.274 207.469C524.028 207.586 523.757 207.639 523.485 207.623C522.966 207.597 522.475 207.379 522.108 207.012C521.74 206.645 521.521 206.155 521.493 205.636C521.477 205.364 521.53 205.092 521.647 204.845C521.765 204.599 521.943 204.387 522.164 204.228C522.514 204.473 522.877 204.7 523.251 204.907C523.458 205.011 523.649 205.143 523.819 205.301C523.974 205.473 524.106 205.664 524.211 205.871C524.418 206.245 524.645 206.607 524.892 206.955Z" fill="#D6694B"/>
<path d="M572.728 251.934C572.949 252.093 573.126 252.306 573.242 252.552C573.359 252.797 573.412 253.069 573.397 253.341C573.37 253.859 573.152 254.35 572.785 254.718C572.418 255.085 571.928 255.304 571.409 255.332C571.137 255.348 570.865 255.295 570.619 255.178C570.372 255.06 570.16 254.883 570.001 254.661C570.247 254.311 570.473 253.948 570.68 253.574C570.784 253.367 570.916 253.176 571.074 253.006C571.246 252.851 571.438 252.719 571.644 252.614C572.018 252.407 572.38 252.18 572.728 251.934Z" fill="#D6694B"/>
<path d="M570.001 217.106C570.16 216.886 570.373 216.709 570.619 216.592C570.865 216.475 571.136 216.422 571.408 216.438C571.927 216.465 572.417 216.683 572.785 217.05C573.153 217.417 573.372 217.907 573.4 218.425C573.416 218.698 573.362 218.97 573.245 219.216C573.128 219.462 572.95 219.675 572.728 219.834C572.378 219.588 572.016 219.361 571.641 219.155C571.435 219.051 571.243 218.918 571.074 218.761C570.918 218.589 570.786 218.397 570.681 218.19C570.475 217.817 570.248 217.455 570.001 217.106Z" fill="#D6694B"/>
<path d="M522.165 219.834C521.944 219.674 521.767 219.462 521.65 219.216C521.534 218.97 521.481 218.699 521.496 218.427C521.523 217.908 521.741 217.417 522.108 217.05C522.475 216.682 522.965 216.463 523.484 216.435C523.756 216.419 524.028 216.472 524.274 216.59C524.52 216.707 524.733 216.885 524.892 217.107C524.646 217.456 524.42 217.819 524.213 218.193C524.109 218.4 523.976 218.591 523.819 218.761C523.647 218.916 523.455 219.048 523.249 219.153C522.875 219.36 522.513 219.587 522.165 219.834Z" fill="#D6694B"/>
<path d="M524.892 254.661C524.732 254.881 524.52 255.058 524.274 255.175C524.028 255.292 523.757 255.345 523.485 255.329C522.966 255.302 522.475 255.085 522.108 254.718C521.74 254.351 521.521 253.861 521.493 253.342C521.477 253.069 521.53 252.798 521.647 252.551C521.765 252.305 521.943 252.093 522.164 251.934C522.514 252.179 522.877 252.406 523.251 252.613C523.458 252.716 523.649 252.849 523.819 253.006C523.974 253.178 524.106 253.37 524.211 253.577C524.418 253.951 524.645 254.312 524.892 254.661Z" fill="#D6694B"/>
<path d="M573.283 309.785H521.609C519.884 309.785 518.485 311.184 518.485 312.91V349.681C518.485 351.406 519.884 352.805 521.609 352.805H573.283C575.008 352.805 576.407 351.406 576.407 349.681V312.91C576.407 311.184 575.008 309.785 573.283 309.785Z" fill="#E19974"/>
<path d="M573.283 357.491H521.609C519.884 357.491 518.485 358.89 518.485 360.615V397.387C518.485 399.112 519.884 400.511 521.609 400.511H573.283C575.008 400.511 576.407 399.112 576.407 397.387V360.615C576.407 358.89 575.008 357.491 573.283 357.491Z" fill="#E19974"/>
<path d="M555.14 182.32H539.753C539.084 182.32 538.542 182.862 538.542 183.53V187.67C538.542 188.339 539.084 188.881 539.753 188.881H555.14C555.808 188.881 556.35 188.339 556.35 187.67V183.53C556.35 182.862 555.808 182.32 555.14 182.32Z" fill="#D6694B"/>
<path d="M555.14 325.438H539.753C539.084 325.438 538.542 325.979 538.542 326.648V330.788C538.542 331.456 539.084 331.998 539.753 331.998H555.14C555.808 331.998 556.35 331.456 556.35 330.788V326.648C556.35 325.979 555.808 325.438 555.14 325.438Z" fill="#D6694B"/>
<path d="M555.14 373.143H539.753C539.084 373.143 538.542 373.685 538.542 374.354V378.494C538.542 379.162 539.084 379.704 539.753 379.704H555.14C555.808 379.704 556.35 379.162 556.35 378.494V374.354C556.35 373.685 555.808 373.143 555.14 373.143Z" fill="#D6694B"/>
<path d="M555.14 230.026H539.753C539.084 230.026 538.542 230.568 538.542 231.236V235.376C538.542 236.045 539.084 236.587 539.753 236.587H555.14C555.808 236.587 556.35 236.045 556.35 235.376V231.236C556.35 230.568 555.808 230.026 555.14 230.026Z" fill="#D6694B"/>
<path d="M572.728 347.345C572.949 347.505 573.126 347.717 573.242 347.963C573.359 348.209 573.412 348.48 573.397 348.752C573.37 349.271 573.152 349.762 572.785 350.129C572.418 350.497 571.928 350.716 571.409 350.744C571.137 350.76 570.865 350.707 570.619 350.589C570.372 350.472 570.16 350.294 570.001 350.073C570.247 349.723 570.473 349.36 570.68 348.986C570.784 348.779 570.916 348.588 571.074 348.418C571.246 348.262 571.438 348.13 571.644 348.026C572.018 347.819 572.38 347.592 572.728 347.345Z" fill="#D6694B"/>
<path d="M570.001 312.518C570.16 312.298 570.373 312.121 570.619 312.004C570.865 311.887 571.136 311.834 571.408 311.85C571.927 311.877 572.417 312.094 572.785 312.461C573.153 312.828 573.372 313.318 573.4 313.837C573.416 314.11 573.362 314.381 573.245 314.628C573.128 314.874 572.95 315.086 572.728 315.245C572.378 315 572.016 314.773 571.641 314.566C571.435 314.463 571.243 314.33 571.074 314.173C570.918 314.001 570.786 313.809 570.681 313.602C570.475 313.228 570.248 312.867 570.001 312.518Z" fill="#D6694B"/>
<path d="M522.165 315.245C521.944 315.086 521.767 314.873 521.65 314.628C521.534 314.382 521.481 314.11 521.496 313.838C521.523 313.32 521.741 312.829 522.108 312.461C522.475 312.094 522.965 311.875 523.484 311.847C523.756 311.831 524.028 311.884 524.274 312.001C524.52 312.119 524.733 312.296 524.892 312.518C524.646 312.868 524.42 313.231 524.213 313.605C524.109 313.812 523.976 314.003 523.819 314.173C523.647 314.328 523.455 314.46 523.249 314.565C522.875 314.772 522.513 314.999 522.165 315.245Z" fill="#D6694B"/>
<path d="M524.892 350.073C524.732 350.293 524.52 350.47 524.274 350.587C524.028 350.704 523.757 350.757 523.485 350.741C522.966 350.714 522.475 350.496 522.108 350.129C521.74 349.762 521.521 349.272 521.493 348.753C521.477 348.481 521.53 348.209 521.647 347.963C521.765 347.717 521.943 347.504 522.164 347.345C522.514 347.591 522.877 347.818 523.251 348.024C523.458 348.128 523.649 348.261 523.819 348.418C523.974 348.59 524.106 348.782 524.211 348.989C524.418 349.362 524.645 349.724 524.892 350.073Z" fill="#D6694B"/>
<path d="M572.728 395.051C572.949 395.211 573.126 395.423 573.242 395.669C573.359 395.915 573.412 396.186 573.397 396.458C573.37 396.977 573.152 397.467 572.785 397.835C572.418 398.203 571.928 398.422 571.409 398.45C571.137 398.466 570.865 398.413 570.619 398.295C570.372 398.178 570.16 398 570.001 397.778C570.247 397.428 570.473 397.066 570.68 396.691C570.784 396.485 570.916 396.294 571.074 396.124C571.246 395.968 571.438 395.836 571.644 395.731C572.018 395.525 572.38 395.298 572.728 395.051Z" fill="#D6694B"/>
<path d="M570.001 360.224C570.16 360.003 570.373 359.827 570.619 359.71C570.865 359.593 571.136 359.54 571.408 359.556C571.927 359.582 572.417 359.8 572.785 360.167C573.153 360.534 573.372 361.024 573.4 361.543C573.416 361.815 573.362 362.087 573.245 362.334C573.128 362.58 572.95 362.792 572.728 362.951C572.378 362.706 572.016 362.479 571.641 362.272C571.435 362.168 571.243 362.036 571.074 361.878C570.918 361.706 570.786 361.515 570.681 361.308C570.475 360.934 570.248 360.572 570.001 360.224Z" fill="#D6694B"/>
<path d="M522.165 362.951C521.944 362.792 521.767 362.579 521.65 362.333C521.534 362.087 521.481 361.816 521.496 361.544C521.523 361.025 521.741 360.535 522.108 360.167C522.475 359.799 522.965 359.58 523.484 359.553C523.756 359.537 524.028 359.59 524.274 359.707C524.52 359.824 524.733 360.002 524.892 360.224C524.646 360.574 524.42 360.937 524.213 361.311C524.109 361.518 523.976 361.709 523.819 361.878C523.647 362.034 523.455 362.166 523.249 362.271C522.875 362.477 522.513 362.704 522.165 362.951Z" fill="#D6694B"/>
<path d="M524.892 397.778C524.732 397.999 524.52 398.176 524.274 398.293C524.028 398.409 523.757 398.462 523.485 398.447C522.966 398.42 522.475 398.202 522.108 397.835C521.74 397.468 521.521 396.978 521.493 396.459C521.477 396.187 521.53 395.915 521.647 395.669C521.765 395.422 521.943 395.21 522.164 395.051C522.514 395.297 522.877 395.523 523.251 395.73C523.458 395.834 523.649 395.967 523.819 396.124C523.974 396.296 524.106 396.488 524.211 396.694C524.418 397.068 524.645 397.43 524.892 397.778Z" fill="#D6694B"/>
<path d="M533.782 384.44C533.782 384.44 565.562 385.085 570.39 379.715C570.39 379.715 559.983 417.002 567.84 435.296L532.493 431.564C532.493 431.564 536.626 402.686 533.782 384.44Z" fill="#7CA1B1"/>
<path d="M526 389.008C526 389.008 557.781 389.653 562.609 384.283C562.609 384.283 552.202 421.57 560.058 439.864L524.711 436.132C524.711 436.132 528.845 407.254 526 389.008Z" fill="#F65B2B"/>
<path d="M529.976 392.518C529.976 392.518 561.756 393.163 566.584 387.793C566.584 387.793 556.177 425.08 564.034 443.374L528.687 439.642C528.687 439.642 532.82 410.764 529.976 392.518Z" fill="white"/>
<path d="M533.866 243.557C533.866 243.557 565.647 244.202 570.475 238.832C570.475 238.832 560.068 276.119 567.924 294.413L532.577 290.68C532.577 290.68 536.711 261.803 533.866 243.557Z" fill="#FFBA55"/>
<path d="M526.085 248.125C526.085 248.125 557.865 248.77 562.693 243.4C562.693 243.4 552.286 280.687 560.143 298.981L524.795 295.248C524.795 295.248 528.929 266.37 526.085 248.125Z" fill="#F65B2B"/>
<path d="M530.06 251.635C530.06 251.635 561.84 252.28 566.668 246.91C566.668 246.91 556.261 284.197 564.118 302.491L528.771 298.759C528.771 298.759 532.904 269.881 530.06 251.635Z" fill="white"/>
<path d="M573.283 405.197H521.609C519.884 405.197 518.485 406.596 518.485 408.321V445.092C518.485 446.818 519.884 448.217 521.609 448.217H573.283C575.008 448.217 576.407 446.818 576.407 445.092V408.321C576.407 406.596 575.008 405.197 573.283 405.197Z" fill="#E19974"/>
<path d="M555.14 420.849H539.753C539.084 420.849 538.542 421.391 538.542 422.059V426.199C538.542 426.868 539.084 427.41 539.753 427.41H555.14C555.808 427.41 556.35 426.868 556.35 426.199V422.059C556.35 421.391 555.808 420.849 555.14 420.849Z" fill="#D6694B"/>
<path d="M572.728 442.757C572.949 442.916 573.126 443.129 573.242 443.375C573.359 443.621 573.412 443.892 573.397 444.164C573.37 444.683 573.152 445.173 572.785 445.541C572.418 445.909 571.928 446.128 571.409 446.156C571.137 446.172 570.865 446.118 570.619 446.001C570.372 445.884 570.16 445.706 570.001 445.484C570.247 445.134 570.473 444.771 570.68 444.397C570.784 444.19 570.916 443.999 571.074 443.83C571.246 443.674 571.438 443.542 571.644 443.437C572.018 443.231 572.38 443.004 572.728 442.757Z" fill="#D6694B"/>
<path d="M570.001 407.93C570.16 407.709 570.373 407.532 570.619 407.416C570.865 407.299 571.136 407.246 571.408 407.261C571.927 407.288 572.417 407.506 572.785 407.873C573.153 408.24 573.372 408.73 573.4 409.249C573.416 409.521 573.362 409.793 573.245 410.039C573.128 410.286 572.95 410.498 572.728 410.657C572.378 410.411 572.016 410.185 571.641 409.978C571.435 409.874 571.243 409.742 571.074 409.584C570.918 409.412 570.786 409.22 570.681 409.014C570.475 408.64 570.248 408.278 570.001 407.93Z" fill="#D6694B"/>
<path d="M522.165 410.657C521.944 410.498 521.767 410.285 521.65 410.039C521.534 409.793 521.481 409.522 521.496 409.25C521.523 408.731 521.741 408.241 522.108 407.873C522.475 407.505 522.965 407.286 523.484 407.258C523.756 407.242 524.028 407.295 524.274 407.413C524.52 407.53 524.733 407.708 524.892 407.93C524.646 408.28 524.42 408.642 524.213 409.017C524.109 409.223 523.976 409.415 523.819 409.584C523.647 409.74 523.455 409.872 523.249 409.977C522.875 410.183 522.513 410.41 522.165 410.657Z" fill="#D6694B"/>
<path d="M524.892 445.484C524.732 445.705 524.52 445.882 524.274 445.998C524.028 446.115 523.757 446.168 523.485 446.152C522.966 446.126 522.475 445.908 522.108 445.541C521.74 445.174 521.521 444.684 521.493 444.165C521.477 443.893 521.53 443.621 521.647 443.375C521.765 443.128 521.943 442.916 522.164 442.757C522.514 443.003 522.877 443.229 523.251 443.436C523.458 443.54 523.649 443.672 523.819 443.83C523.974 444.002 524.106 444.193 524.211 444.4C524.418 444.774 524.645 445.136 524.892 445.484Z" fill="#D6694B"/>
<path d="M573.283 262.08H521.609C519.884 262.08 518.485 263.478 518.485 265.204V301.975C518.485 303.7 519.884 305.099 521.609 305.099H573.283C575.008 305.099 576.407 303.7 576.407 301.975V265.204C576.407 263.478 575.008 262.08 573.283 262.08Z" fill="#E19974"/>
<path d="M555.14 277.732H539.753C539.084 277.732 538.542 278.274 538.542 278.942V283.082C538.542 283.751 539.084 284.292 539.753 284.292H555.14C555.808 284.292 556.35 283.751 556.35 283.082V278.942C556.35 278.274 555.808 277.732 555.14 277.732Z" fill="#D6694B"/>
<path d="M572.728 299.639C572.949 299.799 573.126 300.011 573.242 300.257C573.359 300.503 573.412 300.775 573.397 301.046C573.37 301.565 573.152 302.056 572.785 302.423C572.418 302.791 571.928 303.01 571.409 303.038C571.137 303.054 570.865 303.001 570.619 302.884C570.372 302.766 570.16 302.588 570.001 302.367C570.247 302.017 570.473 301.654 570.68 301.28C570.784 301.073 570.916 300.882 571.074 300.712C571.246 300.557 571.438 300.425 571.644 300.32C572.018 300.113 572.38 299.886 572.728 299.639Z" fill="#D6694B"/>
<path d="M570.001 264.812C570.16 264.592 570.373 264.415 570.619 264.298C570.865 264.181 571.136 264.128 571.408 264.144C571.927 264.171 572.417 264.388 572.785 264.755C573.153 265.122 573.372 265.612 573.4 266.131C573.416 266.404 573.362 266.675 573.245 266.922C573.128 267.168 572.95 267.38 572.728 267.539C572.378 267.294 572.016 267.067 571.641 266.86C571.435 266.757 571.243 266.624 571.074 266.467C570.918 266.295 570.786 266.103 570.681 265.896C570.475 265.522 570.248 265.161 570.001 264.812Z" fill="#D6694B"/>
<path d="M522.165 267.54C521.944 267.38 521.767 267.168 521.65 266.922C521.534 266.676 521.481 266.404 521.496 266.133C521.523 265.614 521.741 265.123 522.108 264.755C522.475 264.388 522.965 264.169 523.484 264.141C523.756 264.125 524.028 264.178 524.274 264.295C524.52 264.413 524.733 264.591 524.892 264.812C524.646 265.162 524.42 265.525 524.213 265.899C524.109 266.106 523.976 266.297 523.819 266.467C523.647 266.622 523.455 266.754 523.249 266.859C522.875 267.066 522.513 267.293 522.165 267.54Z" fill="#D6694B"/>
<path d="M524.892 302.367C524.732 302.587 524.52 302.764 524.274 302.881C524.028 302.998 523.757 303.051 523.485 303.035C522.966 303.008 522.475 302.79 522.108 302.423C521.74 302.056 521.521 301.566 521.493 301.048C521.477 300.775 521.53 300.503 521.647 300.257C521.765 300.011 521.943 299.798 522.164 299.639C522.514 299.885 522.877 300.112 523.251 300.318C523.458 300.422 523.649 300.555 523.819 300.712C523.974 300.884 524.106 301.076 524.211 301.283C524.418 301.656 524.645 302.018 524.892 302.367Z" fill="#D6694B"/>
</svg>
